<svg version="1.1" id="Слой_1" xmlns="http://www.w3.org/2000/svg" xmlns:xlink="http://www.w3.org/1999/xlink" x="0px" y="0px"
	 width="471.991px" height="506.313px" viewBox="330.934 2.843 471.991 506.313"
	 enable-background="new 330.934 2.843 471.991 506.313" xml:space="preserve">
<path display="none" d="M388.623,411.445v-310.89c0-10.456,8.501-18.957,18.958-18.957h280.559c10.456,0,18.957,8.501,18.957,18.957
	v94.784h22.748v-94.784c0-22.992-18.713-41.705-41.705-41.705H407.581c-22.993,0-41.706,18.713-41.706,41.705v310.89
	c0,22.992,18.712,41.705,41.706,41.705h94.784v-22.748h-94.784C397.124,430.402,388.623,421.901,388.623,411.445z M774.806,264.513
	l-19.979-19.986l-19.978-19.97c-3.679-3.679-9.642-3.679-13.32,0L556.679,389.407c-1.056,0.865-1.874,2.034-2.295,3.437
	l-18.244,60.697c-0.771,2.58-0.008,5.262,1.77,7.04l0.495,0.382l0.385,0.49c1.778,1.777,4.452,2.541,7.031,1.777l60.698-18.247
	c1.422-0.429,2.606-1.263,3.469-2.339l164.819-164.819C778.482,274.154,778.482,268.184,774.806,264.513z M606.232,423.097
	l-42.837,12.88l12.879-42.855l114.76-114.763l29.967,29.97L606.232,423.097z M747.971,281.354l-20.975,20.977l-29.967-29.971
	l20.973-20.968c1.654-1.656,4.339-1.656,5.994-0.007l12.102,12.101l11.873,11.878C749.628,277.02,749.628,279.705,747.971,281.354z"
	/>
<g>
	<path d="M735.346,33.557H468.82c-17.129,0-31.75,10.92-37.265,26.172c-1.524,4.197-2.355,8.727-2.355,13.447V368.52
		c0,21.84,17.771,39.619,39.62,39.619h266.526c3.916,0,7.707-0.568,11.281-1.643c16.363-4.863,28.34-20.053,28.34-37.977V73.176
		C774.968,51.327,757.186,33.557,735.346,33.557z M753.36,368.52c0,5.668-2.627,10.73-6.732,14.035
		c-3.086,2.488-7.012,3.979-11.281,3.979H468.82c-9.937,0-18.014-8.078-18.014-18.014V73.176c0-5.342,2.337-10.144,6.038-13.447
		c3.186-2.834,7.382-4.567,11.976-4.567h266.526c9.938,0,18.014,8.078,18.014,18.014V368.52z"/>
	<path fill="#FFFFFF" d="M730.593,121.322v301.209c-3.574,1.074-7.365,1.643-11.281,1.643H452.785
		c-21.85,0-39.62-17.779-39.62-39.619V89.211c0-4.72,0.831-9.25,2.355-13.447h269.515
		C710.152,75.764,730.593,96.206,730.593,121.322z"/>
	<path d="M665.044,478.443H398.512c-21.843,0-39.62-17.777-39.62-39.621V143.477c0-21.842,17.777-39.619,39.62-39.619h266.531
		c21.843,0,39.62,17.777,39.62,39.619v295.345C704.664,460.666,686.886,478.443,665.044,478.443z M398.512,125.468
		c-9.934,0-18.009,8.076-18.009,18.009v295.345c0,9.934,8.075,18.01,18.009,18.01h266.531c9.933,0,18.01-8.076,18.01-18.01V143.477
		c0-9.933-8.077-18.009-18.01-18.009H398.512z"/>
</g>
<path display="none" d="M707.208,58.847H426.654c-23,0-41.705,18.715-41.705,41.705v310.896c0,22.99,18.706,41.706,41.705,41.706
	h280.554c23,0,41.704-18.716,41.704-41.706V100.552C748.912,77.562,730.208,58.847,707.208,58.847z M726.17,411.448
	c0,10.45-8.503,18.953-18.962,18.953H426.654c-10.459,0-18.962-8.503-18.962-18.953V100.552c0-10.45,8.502-18.953,18.962-18.953
	h280.554c10.459,0,18.962,8.502,18.962,18.953V411.448z M619.18,330.1v123.055h88.027c23,0,41.704-18.716,41.704-41.706V330.1
	H619.18z M733.18,439.35h-90.25v-85.5h90.25V439.35z"/>
</svg>
