<svg version="1.1" id="Слой_1" xmlns="http://www.w3.org/2000/svg" xmlns:xlink="http://www.w3.org/1999/xlink" x="0px" y="0px"
	 width="471.991px" height="506.313px" viewBox="330.934 2.843 471.991 506.313"
	 enable-background="new 330.934 2.843 471.991 506.313" xml:space="preserve">
<path display="none" d="M723.911,283.5v131.48c0,22.989-18.7,41.699-41.7,41.699h-280.56c-23,0-41.7-18.71-41.7-41.699v-310.9
	c0-22.99,18.7-41.7,41.7-41.7h167.78v22.75h-167.78c-10.46,0-18.96,8.5-18.96,18.95v310.9c0,10.449,8.5,18.949,18.96,18.949h280.56
	c10.46,0,18.96-8.5,18.96-18.949V283.5H723.911z M717.346,141.854l-29.967-29.97L572.62,226.647l-12.879,42.856l42.837-12.88
	L717.346,141.854z M771.152,111.351l-164.819,164.82c-0.862,1.076-2.047,1.91-3.469,2.339l-60.698,18.247
	c-2.58,0.764-5.254,0-7.031-1.777l-0.385-0.49l-0.496-0.382c-1.777-1.778-2.541-4.46-1.769-7.04l18.244-60.698
	c0.422-1.402,1.24-2.571,2.295-3.437L717.876,58.082c3.679-3.679,9.642-3.679,13.32,0l19.978,19.97l19.979,19.986
	C774.828,101.709,774.828,107.68,771.152,111.351z M744.317,108.889l-11.873-11.878l-12.102-12.101
	c-1.655-1.649-4.34-1.649-5.994,0.007l-20.973,20.968l29.967,29.971l20.975-20.977C745.973,113.231,745.973,110.545,744.317,108.889
	z"/>
<g display="none">
	<path display="inline" d="M735.346,33.557H468.82c-17.129,0-31.75,10.92-37.265,26.172c-1.524,4.197-2.355,8.727-2.355,13.447
		V368.52c0,21.84,17.771,39.619,39.62,39.619h266.526c3.916,0,7.707-0.568,11.281-1.643c16.363-4.863,28.34-20.053,28.34-37.977
		V73.176C774.968,51.327,757.186,33.557,735.346,33.557z M753.36,368.52c0,5.668-2.627,10.73-6.732,14.035
		c-3.086,2.488-7.012,3.979-11.281,3.979H468.82c-9.937,0-18.014-8.078-18.014-18.014V73.176c0-5.342,2.337-10.144,6.038-13.447
		c3.186-2.834,7.382-4.567,11.976-4.567h266.526c9.938,0,18.014,8.078,18.014,18.014V368.52z"/>
	<path display="inline" fill="#FFFFFF" d="M730.593,121.322v301.209c-3.574,1.074-7.365,1.643-11.281,1.643H452.785
		c-21.85,0-39.62-17.779-39.62-39.619V89.211c0-4.72,0.831-9.25,2.355-13.447h269.515
		C710.152,75.764,730.593,96.206,730.593,121.322z"/>
	<path display="inline" d="M665.044,478.443H398.512c-21.843,0-39.62-17.777-39.62-39.621V143.477
		c0-21.842,17.777-39.619,39.62-39.619h266.531c21.843,0,39.62,17.777,39.62,39.619v295.345
		C704.664,460.666,686.886,478.443,665.044,478.443z M398.512,125.468c-9.934,0-18.009,8.076-18.009,18.009v295.345
		c0,9.934,8.075,18.01,18.009,18.01h266.531c9.933,0,18.01-8.076,18.01-18.01V143.477c0-9.933-8.077-18.009-18.01-18.009H398.512z"
		/>
</g>
<path d="M707.211,58.85h-280.56c-23,0-41.7,18.71-41.7,41.7v310.9c0,22.99,18.7,41.7,41.7,41.7h65.58V430.4h-65.58
	c-10.46,0-18.96-8.5-18.96-18.95v-310.9c0-10.45,8.5-18.95,18.96-18.95h280.56c10.46,0,18.96,8.5,18.96,18.95v95.11h22.74v-95.11
	C748.911,77.56,730.211,58.85,707.211,58.85z"/>
<path fill="#FFFFFF" d="M707.211,430.4H492.23V195.66h233.94v215.79C726.171,421.9,717.671,430.4,707.211,430.4z"/>
<path display="none" fill="#FFFFFF" d="M831.93,195.66V535.35h-339.7V453.15h214.98c23,0,41.7-18.71,41.7-41.7V195.66H831.93z"/>
<g>
	<rect x="550.929" y="347.956" width="222.3" height="35.1"/>
	<rect x="644.53" y="254.356" width="35.1" height="222.3"/>
</g>
</svg>
