<svg version="1.1" id="Capa_1" xmlns="http://www.w3.org/2000/svg" xmlns:xlink="http://www.w3.org/1999/xlink" x="0px" y="0px"
	 width="1417.322px" height="1417.324px" viewBox="0 0 1417.322 1417.324" enable-background="new 0 0 1417.322 1417.324"
	 xml:space="preserve">
<g>
	<g>
		<path d="M800.216,1241.658c164.775,0,298.834-134.051,298.834-298.813c0-122.65-74.385-231.611-187.014-276.961L707.957,869.98
			V279.03h590.956l-180.432,180.394c46.027,40.388,84.463,89.465,112.248,143.626c35.07,68.354,52.85,142.196,52.85,219.476
			c0,65.238-12.781,128.543-37.99,188.152c-24.346,57.559-59.193,109.244-103.57,153.621
			c-44.381,44.379-96.068,79.225-153.635,103.566c-59.611,25.213-122.918,37.994-188.168,37.994V1241.658L800.216,1241.658z"/>
		<path fill="#FFFFFF" d="M1141.952,1065.424c13.783-38.309,21.299-79.586,21.299-122.58c0-156.941-100.221-295.435-249.391-344.616
			l-18.775-6.191L772.163,714.973V343.235h371.729l-122.131,122.1l29.59,22.213c51.037,38.321,93.316,88.393,122.256,144.807
			c30.371,59.198,45.773,123.183,45.773,190.169C1219.38,910.834,1192.259,994.973,1141.952,1065.424z"/>
	</g>
	<g>
		<rect x="118.409" y="836.221" stroke="#FFFFFF" stroke-width="0.9263" stroke-miterlimit="10" width="481.134" height="86"/>
		<rect x="118.409" y="495.103" stroke="#FFFFFF" stroke-width="0.9263" stroke-miterlimit="10" width="481.134" height="86"/>
		<rect x="118.409" y="153.985" stroke="#FFFFFF" stroke-width="0.9263" stroke-miterlimit="10" width="481.134" height="86"/>
		<rect x="118.409" y="1177.34" stroke="#FFFFFF" stroke-width="0.9263" stroke-miterlimit="10" width="481.134" height="86"/>
	</g>
</g>
</svg>
