<svg version="1.1" id="Layer_1" xmlns="http://www.w3.org/2000/svg" xmlns:xlink="http://www.w3.org/1999/xlink" x="0px" y="0px"
	 width="1133.861px" height="1133.847px" viewBox="0 425.202 1133.861 1133.847"
	 enable-background="new 0 425.202 1133.861 1133.847" xml:space="preserve">
<path fill="#25B7D3" d="M1133.861,992.139c0-313.134-253.824-566.937-566.922-566.937C253.826,425.202,0,679.005,0,992.139
	c0,313.086,253.826,566.91,566.939,566.91C880.037,1559.048,1133.861,1305.225,1133.861,992.139z"/>
<path fill="#FFFFFF" d="M315.863,821.901c0-31.8,10.208-64.022,30.629-96.66c20.415-32.639,50.215-59.669,89.38-81.096
	c39.167-21.42,84.861-32.136,137.083-32.136c48.534,0,91.388,8.96,128.547,26.863c37.158,17.912,65.857,42.267,86.116,73.061
	c20.25,30.804,30.378,64.273,30.378,100.427c0,28.456-5.774,53.4-17.324,74.817c-11.55,21.427-25.28,39.922-41.177,55.484
	c-15.903,15.567-44.439,41.764-85.613,78.587c-11.383,10.379-20.511,19.505-27.366,27.368c-6.865,7.868-11.973,15.064-15.316,21.589
	c-3.35,6.529-5.948,13.056-7.783,19.585c-1.845,6.524-4.604,17.997-8.284,34.396c-6.362,34.818-26.283,52.224-59.753,52.224
	c-17.409,0-32.059-5.688-43.938-17.073c-11.886-11.379-17.825-28.285-17.825-50.715c0-28.121,4.347-52.475,13.056-73.061
	c8.703-20.591,20.25-38.667,34.647-54.229c14.389-15.567,33.809-34.061,58.247-55.487c21.42-18.743,36.907-32.89,46.449-42.431
	c9.541-9.541,17.573-20.163,24.103-31.887c6.526-11.714,9.792-24.432,9.792-38.161c0-26.779-9.964-49.374-29.878-67.789
	c-19.921-18.405-45.616-27.617-77.077-27.617c-36.83,0-63.945,9.289-81.348,27.869c-17.409,18.579-32.135,45.945-44.188,82.099
	c-11.383,37.833-32.977,56.741-64.776,56.741c-18.753,0-34.569-6.607-47.452-19.834
	C322.304,851.612,315.863,837.302,315.863,821.901z M560.904,1372.242c-20.424,0-38.249-6.615-53.478-19.836
	c-15.236-13.218-22.849-31.713-22.849-55.484c0-21.091,7.358-38.829,22.094-53.227c14.727-14.39,32.804-21.591,54.23-21.591
	c21.091,0,38.829,7.201,53.227,21.591c14.388,14.397,21.591,32.136,21.591,53.227c0,23.436-7.532,41.849-22.597,55.235
	C598.058,1365.545,580.654,1372.242,560.904,1372.242z"/>
</svg>
