<svg version="1.1" id="Capa_1" xmlns="http://www.w3.org/2000/svg" xmlns:xlink="http://www.w3.org/1999/xlink" x="0px" y="0px"
	 width="1417.322px" height="1417.324px" viewBox="0 0 1417.322 1417.324" enable-background="new 0 0 1417.322 1417.324"
	 xml:space="preserve">
<g>
	<linearGradient id="SVGID_1_" gradientUnits="userSpaceOnUse" x1="391.1609" y1="30.4224" x2="391.1608" y2="1546.9303">
		<stop  offset="0" style="stop-color:#3399FF"/>
		<stop  offset="1" style="stop-color:#1D1D1D"/>
	</linearGradient>
	<path fill="url(#SVGID_1_)" d="M594.38,226.201c-164.774,0-298.833,143.973-298.833,320.929
		c0,131.729,74.385,248.754,187.016,297.459l204.076-219.202v634.69H95.683l180.434-193.747
		c-46.028-43.377-84.463-96.088-112.249-154.256c-35.069-73.413-52.852-152.719-52.852-235.72
		c0-70.066,12.781-138.057,37.991-202.077c24.346-61.82,59.192-117.33,103.57-164.992c44.38-47.664,96.069-85.089,153.633-111.232
		c59.613-27.079,122.92-40.806,188.17-40.806L594.38,226.201L594.38,226.201z"/>
	
		<linearGradient id="SVGID_2_" gradientUnits="userSpaceOnUse" x1="973.1609" y1="468.4224" x2="973.1608" y2="1984.931" gradientTransform="matrix(-1 0 0 -1 1999.3218 1855.3242)">
		<stop  offset="0" style="stop-color:#3399FF"/>
		<stop  offset="1" style="stop-color:#1D1D1D"/>
	</linearGradient>
	<path fill="url(#SVGID_2_)" d="M822.942,1191.123c164.774,0,298.833-143.973,298.833-320.929
		c0-131.729-74.385-248.754-187.016-297.459L730.683,791.938v-634.69h590.955l-180.434,193.747
		c46.028,43.377,84.463,96.088,112.249,154.256c35.069,73.414,52.852,152.719,52.852,235.72c0,70.066-12.781,138.057-37.991,202.077
		c-24.346,61.819-59.192,117.33-103.57,164.991c-44.38,47.663-96.069,85.09-153.633,111.232
		c-59.613,27.079-122.92,40.807-188.17,40.807L822.942,1191.123L822.942,1191.123z"/>
</g>
</svg>
