<svg version="1.1" id="Слой_1" xmlns="http://www.w3.org/2000/svg" xmlns:xlink="http://www.w3.org/1999/xlink" x="0px" y="0px"
	 width="1364.172px" height="1356.964px" viewBox="-2.916 328.803 1364.172 1356.964"
	 enable-background="new -2.916 328.803 1364.172 1356.964" xml:space="preserve">
<g id="Слой_1_1_">
	<path fill="#CC0000" stroke="#000000" stroke-width="5.9066" stroke-miterlimit="10" d="M124.269,332.969
		C61.616,345.438,1.716,417.478,0.086,447.669c-1.685,31.165,40.061,62.335,128.492,120.029
		c103.926,67.787,335.841,211.996,383.773,261.601C322.057,958.327,54.836,1197.803,44.15,1459.137
		c-4.626,114.66,74.863,300.846,205.729,189.396c87.991-74.938,33.182-198.021,76.743-295.025
		c44.058-98.141,316.962-417.242,316.962-417.242s32.625,28.283,49.313,43.123c119.739,106.367,226.416,232.453,313.15,370.709
		c23.498,37.438,91.116,225.164,132.298,225.164c-2.624-297.031-247.154-561.244-350.964-722.969
		c-11.805-18.385-31.047-44.229-31.047-44.229s146.099-166.828,298.646-287.971c119.055-94.463,247.911-158.778,295.844-188.328
		c-283.345,0.268-469.948,203.306-688.492,363.823C515.476,573.384,401.615,390.264,217.759,343.2
		c-28-7.221-57.556-11.233-89.181-11.432"/>
	
		<radialGradient id="SVGID_1_" cx="448.0393" cy="961.8306" r="812.8991" gradientTransform="matrix(1 0 0 -1.0698 269.27 1979.2507)" gradientUnits="userSpaceOnUse">
		<stop  offset="0" style="stop-color:#000000;stop-opacity:0"/>
		<stop  offset="0.1655" style="stop-color:#030303;stop-opacity:0.0827"/>
		<stop  offset="0.2963" style="stop-color:#0D0D0D;stop-opacity:0.1481"/>
		<stop  offset="0.4153" style="stop-color:#1E1E1E;stop-opacity:0.2077"/>
		<stop  offset="0.5273" style="stop-color:#353535;stop-opacity:0.2636"/>
		<stop  offset="0.6344" style="stop-color:#545454;stop-opacity:0.3172"/>
		<stop  offset="0.7378" style="stop-color:#797979;stop-opacity:0.3689"/>
		<stop  offset="0.8383" style="stop-color:#A6A6A6;stop-opacity:0.4191"/>
		<stop  offset="0.934" style="stop-color:#D8D8D8;stop-opacity:0.467"/>
		<stop  offset="1" style="stop-color:#FFFFFF;stop-opacity:0.5"/>
	</radialGradient>
	<path fill="url(#SVGID_1_)" d="M124.269,332.969C61.616,345.438,1.716,417.478,0.086,447.669
		c-1.685,31.165,40.061,62.335,128.492,120.029c103.926,67.787,335.841,211.996,383.773,261.601
		C322.057,958.327,54.836,1197.803,44.15,1459.137c-4.626,114.66,74.863,300.846,205.729,189.396
		c87.991-74.938,33.182-198.021,76.743-295.025c44.058-98.141,316.962-417.242,316.962-417.242s32.625,28.283,49.313,43.123
		c119.739,106.367,226.416,232.453,313.15,370.709c23.498,37.438,91.116,225.164,132.298,225.164
		c-2.624-297.031-247.154-561.244-350.964-722.969c-11.805-18.385-25.058-49.736-25.058-49.736s140.108-161.32,292.656-282.462
		c119.055-94.463,247.911-158.778,295.844-188.328c-283.345,0.269-469.948,203.307-688.492,363.822
		C515.476,573.384,401.615,390.264,217.759,343.2c-28-7.221-57.556-11.233-89.181-11.432"/>
</g>
</svg>
