<?xml version="1.0" encoding="utf-8"?>
<!-- Generator: Adobe Illustrator 16.0.3, SVG Export Plug-In . SVG Version: 6.00 Build 0)  -->
<!DOCTYPE svg PUBLIC "-//W3C//DTD SVG 1.1//EN" "http://www.w3.org/Graphics/SVG/1.1/DTD/svg11.dtd">
<svg version="1.1" id="РЎР»РѕР№_1" xmlns="http://www.w3.org/2000/svg" xmlns:xlink="http://www.w3.org/1999/xlink" x="0px" y="0px"
	 width="471.997px" height="506.324px" viewBox="0 0 471.997 506.324" enable-background="new 0 0 471.997 506.324"
	 xml:space="preserve">
<path d="M60.997,89.095c0,6.037,3.27,10.938,7.291,10.938h335.418c4.024,0,7.291-4.902,7.291-10.938
	c0-6.039-3.267-10.939-7.291-10.939H68.29C64.264,78.156,60.997,83.056,60.997,89.095z M290.627,242.217h113.08
	c4.021,0,7.291,4.89,7.291,10.93s-3.271,10.94-7.291,10.94h-113.08c-4.029,0-7.299-4.9-7.299-10.94S286.598,242.217,290.627,242.217
	z M83.351,182.192h115.846c0.193,0.64,0.357,1.52,0.357,2.63v136.67c0,1.11-0.164,1.99-0.357,2.63H83.351
	c-0.193-0.64-0.356-1.52-0.356-2.63v-136.67C82.995,183.712,83.158,182.832,83.351,182.192 M80.535,160.192
	c-10.96,0-19.54,10.82-19.54,24.63v136.67c0,13.81,8.58,24.63,19.54,24.63h121.479c10.95,0,19.54-10.82,19.54-24.63v-136.67
	c0-13.81-8.59-24.63-19.54-24.63H80.535L80.535,160.192z M290.627,160.19h113.08c4.021,0,7.291,4.9,7.291,10.94
	c0,6.03-3.271,10.93-7.291,10.93h-113.08c-4.029,0-7.299-4.899-7.299-10.93C283.329,165.09,286.598,160.19,290.627,160.19z
	 M290.627,324.244h113.08c4.021,0,7.291,4.899,7.291,10.939s-3.271,10.939-7.291,10.939h-113.08c-4.029,0-7.299-4.899-7.299-10.939
	S286.598,324.243,290.627,324.244z M60.997,417.219c0,6.038,3.27,10.938,7.291,10.938h335.418c4.024,0,7.291-4.902,7.291-10.938
	c0-6.039-3.267-10.939-7.291-10.939H68.29C64.264,406.28,60.997,411.18,60.997,417.219z"/>
</svg>