<?xml version="1.0" encoding="utf-8"?>
<!-- Generator: Adobe Illustrator 16.0.3, SVG Export Plug-In . SVG Version: 6.00 Build 0)  -->
<!DOCTYPE svg PUBLIC "-//W3C//DTD SVG 1.1//EN" "http://www.w3.org/Graphics/SVG/1.1/DTD/svg11.dtd">
<svg version="1.1" id="РЎР»РѕР№_1" xmlns="http://www.w3.org/2000/svg" xmlns:xlink="http://www.w3.org/1999/xlink" x="0px" y="0px"
	 width="471.997px" height="506.324px" viewBox="0 0 471.997 506.324" enable-background="new 0 0 471.997 506.324"
	 xml:space="preserve">
<path d="M403.704,78.156H68.288c-4.025,0-7.292,4.9-7.292,10.939c0,6.036,3.267,10.938,7.292,10.938h335.417
	c4.021,0,7.291-4.901,7.291-10.938C410.997,83.056,407.729,78.156,403.704,78.156z M188.665,253.147c0,6.04-3.27,10.94-7.3,10.94
	H68.285c-4.02,0-7.29-4.9-7.29-10.94s3.27-10.93,7.29-10.93h113.08C185.395,242.217,188.665,247.107,188.665,253.147z
	 M388.642,182.192c0.193,0.64,0.356,1.52,0.356,2.63v136.67c0,1.11-0.163,1.99-0.356,2.63H272.796
	c-0.193-0.64-0.357-1.52-0.357-2.63v-136.67c0-1.11,0.164-1.991,0.357-2.63H388.642 M391.458,160.192H269.979
	c-10.95,0-19.54,10.82-19.54,24.63v136.67c0,13.81,8.59,24.63,19.54,24.63h121.479c10.96,0,19.54-10.82,19.54-24.63v-136.67
	C410.999,171.012,402.418,160.192,391.458,160.192L391.458,160.192z M188.665,171.13c0,6.03-3.27,10.93-7.3,10.93H68.285
	c-4.02,0-7.29-4.899-7.29-10.93c0-6.04,3.27-10.94,7.29-10.94h113.08C185.395,160.19,188.665,165.09,188.665,171.13z
	 M188.665,335.184c0,6.04-3.27,10.939-7.3,10.939H68.285c-4.02,0-7.29-4.899-7.29-10.939s3.27-10.939,7.29-10.939h113.08
	C185.395,324.243,188.665,329.144,188.665,335.184z M403.704,406.28H68.288c-4.025,0-7.292,4.9-7.292,10.939
	c0,6.035,3.267,10.938,7.292,10.938h335.417c4.021,0,7.291-4.899,7.291-10.938C410.997,411.18,407.729,406.28,403.704,406.28z"/>
</svg>