<?xml version="1.0" encoding="utf-8"?>
<!-- Generator: Adobe Illustrator 16.0.3, SVG Export Plug-In . SVG Version: 6.00 Build 0)  -->
<!DOCTYPE svg PUBLIC "-//W3C//DTD SVG 1.1//EN" "http://www.w3.org/Graphics/SVG/1.1/DTD/svg11.dtd">
<svg version="1.1" id="РЎР»РѕР№_1" xmlns="http://www.w3.org/2000/svg" xmlns:xlink="http://www.w3.org/1999/xlink" x="0px" y="0px"
	 width="471.997px" height="506.324px" viewBox="0 0 471.997 506.324" enable-background="new 0 0 471.997 506.324"
	 xml:space="preserve">
<path d="M60.997,89.095c0,6.036,3.27,10.938,7.291,10.938h335.417c4.023,0,7.291-4.902,7.291-10.938
	c0-6.039-3.268-10.939-7.291-10.939H68.29C64.264,78.156,60.997,83.056,60.997,89.095z M60.997,417.219
	c0,6.038,3.27,10.938,7.291,10.938h335.417c4.023,0,7.291-4.901,7.291-10.938c0-6.039-3.268-10.939-7.291-10.939H68.29
	C64.264,406.28,60.997,411.18,60.997,417.219z M388.997,182.192v141.47h-306v-141.47H388.997 M399.505,160.192H72.488
	c-6.347,0-11.491,5.536-11.491,12.365v160.741c0,6.828,5.145,12.364,11.491,12.364h327.017c6.346,0,11.491-5.536,11.491-12.364
	V172.557C410.997,165.728,405.851,160.192,399.505,160.192L399.505,160.192z"/>
</svg>