<?xml version="1.0" encoding="utf-8"?>
<!-- Generator: Adobe Illustrator 16.0.3, SVG Export Plug-In . SVG Version: 6.00 Build 0)  -->
<!DOCTYPE svg PUBLIC "-//W3C//DTD SVG 1.1//EN" "http://www.w3.org/Graphics/SVG/1.1/DTD/svg11.dtd">
<svg version="1.1" id="Layer_1" xmlns="http://www.w3.org/2000/svg" xmlns:xlink="http://www.w3.org/1999/xlink" x="0px" y="0px"
	 width="506.324px" height="506.324px" viewBox="0 0 506.324 506.324" enable-background="new 0 0 506.324 506.324"
	 xml:space="preserve">
<path d="M159.822,124.962c-20.74,0-37.61,16.87-37.61,37.6s16.87,37.61,37.61,37.61c20.729,0,37.6-16.88,37.6-37.61
	C197.422,141.822,180.552,124.962,159.822,124.962z M159.822,175.082c-6.91,0-12.54-5.61-12.54-12.53c0-6.9,5.63-12.53,12.54-12.53
	c6.909,0,12.529,5.62,12.529,12.53C172.352,169.472,166.731,175.082,159.822,175.082z M427.563,329.793v34.93l-115.23-169.74
	l-90.51,118.959l56.229,68.221l-17.149,10.4l-59.91-72.689l-42.95-52.102l-79.28,105.811v-33.08l79.28-103.93l51.43,62.391
	l102.86-135.181L427.563,329.793z M408.612,71.182h-310.9c-22.98,0-41.7,18.7-41.7,41.7v280.559c0,23,18.71,41.701,41.7,41.701
	h310.9c22.989,0,41.7-18.701,41.7-41.701V112.882C450.313,89.882,431.602,71.182,408.612,71.182z M427.563,393.441
	c0,5.23-2.12,9.971-5.561,13.4c-0.21,0.211-0.43,0.42-0.66,0.631c-0.439,0.41-0.91,0.799-1.399,1.16c-1.7,1.279-3.62,2.279-5.7,2.92
	c-1.78,0.549-3.67,0.85-5.63,0.85h-310.9c-10.45,0-18.95-8.5-18.95-18.961V112.882c0-10.46,8.5-18.96,18.95-18.96h310.9
	c10.45,0,18.95,8.5,18.95,18.96V393.441z"/>
</svg>
