<?xml version="1.0" encoding="utf-8"?>
<!-- Generator: Adobe Illustrator 16.0.3, SVG Export Plug-In . SVG Version: 6.00 Build 0)  -->
<!DOCTYPE svg PUBLIC "-//W3C//DTD SVG 1.1//EN" "http://www.w3.org/Graphics/SVG/1.1/DTD/svg11.dtd">
<svg version="1.1" id="Слой_1" xmlns="http://www.w3.org/2000/svg" xmlns:xlink="http://www.w3.org/1999/xlink" x="0px" y="0px"
	 width="502.65px" height="502.65px" viewBox="0 0 502.65 502.65" enable-background="new 0 0 502.65 502.65" xml:space="preserve">
<path d="M319.045,202.13l-67.704,65.209l-67.736-65.21c-6.234-6.234-16.334-7.481-22.568-1.247c-6.234,6.234-6.235,15.087,0,21.321
	l79.02,78.99c6.235,6.232,16.334,6.233,22.568,0l78.988-78.99c6.234-6.233,6.234-15.087,0-21.321
	C335.378,194.647,325.279,195.895,319.045,202.13L319.045,202.13L319.045,202.13L319.045,202.13z"/>
<g>
	<path d="M251.325,20c31.237,0,61.53,6.113,90.036,18.17c27.543,11.65,52.284,28.333,73.535,49.583s37.934,45.992,49.583,73.536
		c12.058,28.506,18.171,58.798,18.171,90.036s-6.113,61.53-18.171,90.037c-11.649,27.543-28.332,52.284-49.583,73.535
		s-45.992,37.934-73.535,49.583c-28.506,12.058-58.799,18.171-90.036,18.171c-31.238,0-61.53-6.113-90.037-18.171
		c-27.543-11.649-52.285-28.332-73.536-49.583s-37.933-45.992-49.583-73.535c-12.057-28.507-18.17-58.799-18.17-90.037
		s6.113-61.53,18.17-90.036c11.65-27.544,28.333-52.285,49.583-73.536s45.992-37.934,73.536-49.583
		C189.795,26.113,220.087,20,251.325,20 M251.325,0C112.521,0-0.001,112.522-0.001,251.325s112.522,251.326,251.326,251.326
		c138.803,0,251.325-112.522,251.325-251.326S390.128,0,251.325,0L251.325,0z"/>
</g>
</svg>
