<?xml version="1.0" encoding="utf-8"?>
<!-- Generator: Adobe Illustrator 16.0.3, SVG Export Plug-In . SVG Version: 6.00 Build 0)  -->
<!DOCTYPE svg PUBLIC "-//W3C//DTD SVG 1.1//EN" "http://www.w3.org/Graphics/SVG/1.1/DTD/svg11.dtd">
<svg version="1.1" id="Слой_1" xmlns="http://www.w3.org/2000/svg" xmlns:xlink="http://www.w3.org/1999/xlink" x="0px" y="0px"
	 width="471.992px" height="506.313px" viewBox="0 0 471.992 506.313" enable-background="new 0 0 471.992 506.313"
	 xml:space="preserve">
<g id="Слой_1_1_">
	<g display="none">
		<path display="inline" d="M735.345,33.557H468.82c-17.129,0-31.75,10.92-37.268,26.172c-1.521,4.197-2.354,8.727-2.354,13.447
			V368.52c0,21.843,17.77,39.619,39.619,39.619h266.523c3.916,0,7.707-0.565,11.281-1.643c16.363-4.863,28.34-20.053,28.34-37.979
			V73.176C774.968,51.327,757.185,33.557,735.345,33.557z M753.361,368.52c0,5.668-2.627,10.73-6.732,14.035
			c-3.086,2.488-7.012,3.979-11.281,3.979H468.82c-9.938,0-18.016-8.078-18.016-18.017V73.176c0-5.342,2.336-10.144,6.037-13.447
			c3.188-2.834,7.383-4.567,11.979-4.567h266.523c9.939,0,18.018,8.078,18.018,18.014V368.52L753.361,368.52z"/>
		<path display="inline" fill="#FFFFFF" d="M730.593,121.322v301.209c-3.574,1.074-7.365,1.643-11.281,1.643H452.785
			c-21.852,0-39.619-17.779-39.619-39.619V89.211c0-4.72,0.83-9.25,2.354-13.447h269.517
			C710.152,75.764,730.593,96.206,730.593,121.322z"/>
		<path display="inline" d="M665.044,478.443H398.512c-21.843,0-39.619-17.777-39.619-39.621V143.477
			c0-21.842,17.776-39.619,39.619-39.619h266.53c21.844,0,39.621,17.777,39.621,39.619v295.345
			C704.664,460.666,686.886,478.443,665.044,478.443z M398.512,125.468c-9.935,0-18.009,8.076-18.009,18.009v295.345
			c0,9.934,8.074,18.01,18.009,18.01h266.53c9.934,0,18.01-8.076,18.01-18.01V143.477c0-9.933-8.076-18.009-18.01-18.009H398.512z"
			/>
	</g>
	<path display="none" d="M707.208,58.847H426.654c-23,0-41.705,18.715-41.705,41.705v310.896c0,22.989,18.705,41.706,41.705,41.706
		h280.555c23,0,41.703-18.719,41.703-41.706V100.552C748.912,77.562,730.208,58.847,707.208,58.847z M726.169,411.448
		c0,10.45-8.502,18.953-18.961,18.953H426.654c-10.459,0-18.963-8.503-18.963-18.953V100.552c0-10.45,8.502-18.953,18.963-18.953
		h280.555c10.459,0,18.961,8.502,18.961,18.953L726.169,411.448L726.169,411.448z M619.179,330.1v123.058h88.027
		c23,0,41.705-18.716,41.705-41.706V330.1H619.179z M733.179,439.35h-90.25v-85.5h90.25V439.35z"/>
</g>
<g id="Capa_1">
	<g>
		<path fill="#333333" d="M375.449,266.141c-13.672-15.95-33.949-27.037-60.84-33.267c18.846-8.66,30.238-14.507,34.188-17.544
			c9.568-7.141,16.785-15.117,21.639-23.927c4.861-8.813,7.289-18.534,7.289-29.167c0-9.873-1.592-19.139-4.783-27.798
			c-3.19-8.661-8.127-16.56-14.811-23.699c-6.836-7.138-14.584-12.913-23.242-17.318c-8.053-3.948-15.344-6.91-21.877-8.885
			c-15.645-4.102-30.152-6.153-43.52-6.153h-16.861c-3.037,0-6.119-0.038-9.232-0.114c-3.108-0.072-4.743-0.112-4.895-0.112
			c-0.758,0-1.822,0.04-3.194,0.113c-1.367,0.076-2.434,0.114-3.192,0.114l-10.256,0.229l-86.584,2.962l-59.243,1.367l0.912,18.911
			c12.759,1.673,21.421,2.663,25.977,2.965c7.747,0.456,12.988,1.598,15.723,3.418c1.673,1.218,2.584,2.128,2.736,2.735
			c1.518,3.342,2.352,11.62,2.506,24.838c0.606,22.483,1.292,53.168,2.05,92.056l0.455,113.246c0,19.44-0.682,34.181-2.049,44.205
			c-0.607,3.646-2.205,7.52-4.786,11.621c-6.988,2.886-16.33,5.241-28.027,7.063c-3.491,0.453-8.657,1.365-15.492,2.737
			l-0.456,21.417c36.305-1.219,56.963-2.052,61.982-2.507c32.506-1.979,55.144-2.812,67.901-2.509l44.887,0.908
			c17.629,0.605,32.666-0.229,45.119-2.506c19.748-3.646,35.162-8.207,46.256-13.676c11.24-5.468,21.871-13.672,31.896-24.607
			c7.604-8.353,12.988-17.239,16.178-26.662c4.408-12.907,6.607-25.136,6.607-36.683
			C396.414,300.172,389.428,282.244,375.449,266.141z M197.037,104.594c11.848-1.975,21.722-2.961,29.62-2.961
			c25.976,0,45.349,5.697,58.106,17.09c12.904,11.39,19.363,25.595,19.363,42.607c0,24.155-6.758,41.168-20.277,51.041
			c-13.518,9.873-33.57,14.812-60.155,14.812c-10.025,0-18.304-0.531-24.834-1.594c-0.154-5.166-0.23-11.014-0.23-17.547l0.23-22.33
			c0.149-23.848-0.306-45.037-1.369-63.573C197.188,117.127,197.037,111.282,197.037,104.594z M310.969,367.769
			c-5.621,10.937-14.891,19.521-27.799,25.751c-12.914,6.23-29.322,9.341-49.219,9.341c-9.723,0-20.355-2.426-31.9-7.286
			c-1.822-4.403-2.734-7.752-2.737-10.029l-0.683-61.522l0.23-39.421v-32.813c4.102-1.519,11.774-2.277,23.015-2.277
			c25.369,0,44.126,2.432,56.281,7.291c12.606,4.865,23.317,14.436,32.129,28.713c6.229,10.029,9.342,23.699,9.342,41.02
			C319.625,343.391,316.736,357.137,310.969,367.769z"/>
	</g>
</g>
</svg>
