<?xml version="1.0" encoding="utf-8"?>
<!-- Generator: Adobe Illustrator 16.0.3, SVG Export Plug-In . SVG Version: 6.00 Build 0)  -->
<!DOCTYPE svg PUBLIC "-//W3C//DTD SVG 1.1//EN" "http://www.w3.org/Graphics/SVG/1.1/DTD/svg11.dtd">
<svg version="1.1" id="Слой_1" xmlns="http://www.w3.org/2000/svg" xmlns:xlink="http://www.w3.org/1999/xlink" x="0px" y="0px"
	 width="471.992px" height="506.313px" viewBox="0 0 471.992 506.313" enable-background="new 0 0 471.992 506.313"
	 xml:space="preserve">
<path d="M90.874,356.376c19.399,0,35.126,15.727,35.126,35.126s-15.727,35.126-35.126,35.126s-35.126-15.727-35.126-35.126
	S71.475,356.376,90.874,356.376z M90.874,218.03c19.4,0,35.127,15.728,35.127,35.127c0,19.4-15.727,35.128-35.127,35.128
	s-35.127-15.728-35.127-35.128C55.747,233.757,71.474,218.03,90.874,218.03z M90.874,79.685c19.4,0,35.127,15.727,35.127,35.127
	s-15.727,35.127-35.127,35.127s-35.127-15.727-35.127-35.127S71.474,79.685,90.874,79.685z M416.245,123.813h-240.75v-18h240.75
	V123.813z M416.245,262.157h-240.75v-18h240.75V262.157z M416.245,400.502h-240.75v-18h240.75V400.502z"/>
</svg>
