<?xml version="1.0" encoding="utf-8"?>
<!-- Generator: Adobe Illustrator 16.0.3, SVG Export Plug-In . SVG Version: 6.00 Build 0)  -->
<!DOCTYPE svg PUBLIC "-//W3C//DTD SVG 1.1//EN" "http://www.w3.org/Graphics/SVG/1.1/DTD/svg11.dtd">
<svg version="1.1" id="Слой_1" xmlns="http://www.w3.org/2000/svg" xmlns:xlink="http://www.w3.org/1999/xlink" x="0px" y="0px"
	 width="471.992px" height="506.313px" viewBox="0 0 471.992 506.313" enable-background="new 0 0 471.992 506.313"
	 xml:space="preserve">
<g id="Слой_1_1_">
	<g display="none">
		<path display="inline" d="M735.345,33.557H468.82c-17.129,0-31.75,10.92-37.268,26.172c-1.521,4.197-2.354,8.727-2.354,13.447
			V368.52c0,21.843,17.77,39.619,39.619,39.619h266.523c3.916,0,7.707-0.565,11.281-1.643c16.363-4.863,28.34-20.053,28.34-37.979
			V73.176C774.968,51.327,757.185,33.557,735.345,33.557z M753.361,368.52c0,5.668-2.627,10.73-6.732,14.035
			c-3.086,2.488-7.012,3.979-11.281,3.979H468.82c-9.938,0-18.016-8.078-18.016-18.017V73.176c0-5.342,2.336-10.144,6.037-13.447
			c3.188-2.834,7.383-4.567,11.979-4.567h266.523c9.939,0,18.018,8.078,18.018,18.014V368.52L753.361,368.52z"/>
		<path display="inline" fill="#FFFFFF" d="M730.593,121.322v301.209c-3.574,1.074-7.365,1.643-11.281,1.643H452.785
			c-21.852,0-39.619-17.779-39.619-39.619V89.211c0-4.72,0.83-9.25,2.354-13.447h269.517
			C710.152,75.764,730.593,96.206,730.593,121.322z"/>
		<path display="inline" d="M665.044,478.443H398.512c-21.843,0-39.619-17.777-39.619-39.621V143.477
			c0-21.842,17.776-39.619,39.619-39.619h266.53c21.844,0,39.621,17.777,39.621,39.619v295.345
			C704.664,460.666,686.886,478.443,665.044,478.443z M398.512,125.468c-9.935,0-18.009,8.076-18.009,18.009v295.345
			c0,9.934,8.074,18.01,18.009,18.01h266.53c9.934,0,18.01-8.076,18.01-18.01V143.477c0-9.933-8.076-18.009-18.01-18.009H398.512z"
			/>
	</g>
	<path display="none" d="M707.208,58.847H426.654c-23,0-41.705,18.715-41.705,41.705v310.896c0,22.989,18.705,41.706,41.705,41.706
		h280.555c23,0,41.703-18.719,41.703-41.706V100.552C748.912,77.562,730.208,58.847,707.208,58.847z M726.169,411.448
		c0,10.45-8.502,18.953-18.961,18.953H426.654c-10.459,0-18.963-8.503-18.963-18.953V100.552c0-10.45,8.502-18.953,18.963-18.953
		h280.555c10.459,0,18.961,8.502,18.961,18.953L726.169,411.448L726.169,411.448z M619.179,330.1v123.058h88.027
		c23,0,41.705-18.716,41.705-41.706V330.1H619.179z M733.179,439.35h-90.25v-85.5h90.25V439.35z"/>
</g>
<g id="Capa_1">
	<g>
		<path fill="#222222" d="M347.25,74.24c-5.449,0.392-10.752,0.745-15.895,1.054c-23.062,1.399-39.736,2.102-50.019,2.102
			c-5.297,0-10.985-0.158-17.062-0.467l-74.085-3.273l-4.442,24.074c1.557,0.309,4.519,0.624,8.882,0.935
			c16.047,0.932,27.267,3.116,33.655,6.543v8.882l-1.869,11.683l-5.142,31.553l-3.741,14.726l-6.778,36.694
			c0,0.158-0.273,1.054-0.818,2.691c-0.546,1.635-1.248,4.01-2.103,7.126c-0.859,3.118-1.83,6.741-2.923,10.869
			c-1.093,4.128-2.338,9.35-3.741,15.66c-1.402,6.31-2.728,12.896-3.973,19.749l-2.807,14.96l-13.086,62.639l-6.312,32.479
			c-1.871,9.979-5.063,17.848-9.581,23.606c-6.233,3.119-15.271,6.155-27.113,9.119c-11.374,2.958-17.372,4.518-17.995,4.674
			l-3.973,19.87c3.737-0.313,11.372-1.012,22.903-2.105c20.724-1.869,34.279-2.727,40.666-2.57l46.278,0.465
			c19.63,2.028,30.925,3.352,33.884,3.979c2.961,0.464,5.145,0.699,6.545,0.699c2.807,0,6.076-0.156,9.813-0.468
			c0.778-0.153,2.571-0.231,5.377-0.231c0.312-1.558,1.013-4.755,2.104-9.588c0.93-4.52,1.477-9.036,1.637-13.559
			c-4.68-0.775-9.816-1.558-15.432-2.331c-8.564-0.937-17.84-2.574-27.813-4.907c-0.463-3.116-0.541-5.22-0.229-6.313l2.807-10.518
			l10.053-54.922l8.881-36.929l14.258-72.688c3.426-16.673,8.568-40.508,15.43-71.52c0.625-5.92,1.634-12.309,3.039-19.166
			c1.869-8.88,3.742-15.735,5.609-20.568c5.766-2.335,13.637-4.75,23.605-7.243c8.42-1.868,16.908-4.283,25.477-7.243
			c0.938-3.429,1.955-7.401,3.041-11.92c0.627-2.962,1.094-5.921,1.4-8.88C355.51,73.658,352.703,73.852,347.25,74.24z"/>
	</g>
</g>
</svg>
