<?xml version="1.0" encoding="utf-8"?>
<!-- Generator: Adobe Illustrator 16.0.3, SVG Export Plug-In . SVG Version: 6.00 Build 0)  -->
<!DOCTYPE svg PUBLIC "-//W3C//DTD SVG 1.1//EN" "http://www.w3.org/Graphics/SVG/1.1/DTD/svg11.dtd">
<svg version="1.1" id="Слой_1" xmlns="http://www.w3.org/2000/svg" xmlns:xlink="http://www.w3.org/1999/xlink" x="0px" y="0px"
	 width="471.992px" height="506.313px" viewBox="0 0 471.992 506.313" enable-background="new 0 0 471.992 506.313"
	 xml:space="preserve">
<polygon fill="#333333" points="325.646,322.676 325.646,290.676 236.646,290.676 433.146,94.176 410.146,71.176 213.646,267.676 
	213.646,178.676 181.646,178.676 181.646,322.676 "/>
<path fill="#333333" d="M38.846,112.876v280.56c0,23,18.71,41.701,41.7,41.701h310.899c22.99,0,41.701-18.701,41.701-41.701v-65.58
	h-22.75v65.58c0,10.461-8.5,18.961-18.951,18.961H80.546c-10.45,0-18.95-8.5-18.95-18.961v-280.56c0-10.461,8.5-18.961,18.95-18.961
	h95.11V71.176h-95.11C57.556,71.176,38.846,89.876,38.846,112.876z"/>
</svg>
