<?xml version="1.0" encoding="utf-8"?>
<!-- Generator: Adobe Illustrator 16.0.3, SVG Export Plug-In . SVG Version: 6.00 Build 0)  -->
<!DOCTYPE svg PUBLIC "-//W3C//DTD SVG 1.1//EN" "http://www.w3.org/Graphics/SVG/1.1/DTD/svg11.dtd">
<svg version="1.1" id="Слой_1" xmlns="http://www.w3.org/2000/svg" xmlns:xlink="http://www.w3.org/1999/xlink" x="0px" y="0px"
	 width="471.992px" height="506.313px" viewBox="0 0 471.992 506.313" enable-background="new 0 0 471.992 506.313"
	 xml:space="preserve">
<path fill="#CC0000" d="M442.823,428.204h-95.17L226.981,264.516c-8.939,0.348-16.214,0.519-21.82,0.519
	c-2.281,0-4.733-0.041-7.362-0.13c-2.629-0.086-5.348-0.215-8.149-0.389v101.728c0,22.032,2.453,35.717,7.361,41.051
	c6.659,7.576,16.65,11.358,29.971,11.358h13.934v9.553H88.169v-9.553h13.409c15.073,0,25.85-4.815,32.337-14.457
	c3.68-5.334,5.521-17.983,5.521-37.952V140.072c0-22.029-2.457-35.714-7.361-41.051c-6.836-7.571-17.003-11.359-30.497-11.359
	H88.169v-9.554h129.873c37.857,0,65.768,2.711,83.735,8.134c17.964,5.422,33.211,15.405,45.744,29.948
	c12.529,14.547,18.798,31.887,18.798,52.024c0,21.518-7.145,40.191-21.427,56.025c-14.287,15.839-36.411,27.024-66.382,33.563
	l73.611,100.436c16.827,23.066,31.286,38.386,43.379,45.957c12.095,7.574,27.867,12.394,47.323,14.457L442.823,428.204
	L442.823,428.204z M189.649,248.251c3.328,0,6.219,0.045,8.676,0.129c2.453,0.089,4.469,0.129,6.046,0.129
	c34.001,0,59.634-7.229,76.9-21.688c17.262-14.458,25.895-32.874,25.895-55.251c0-21.856-6.967-39.632-20.898-53.314
	c-13.936-13.685-32.383-20.525-55.342-20.525c-10.167,0-23.923,1.639-41.275,4.905L189.649,248.251L189.649,248.251z"/>
</svg>
