<?xml version="1.0" encoding="utf-8"?>
<!-- Generator: Adobe Illustrator 16.0.3, SVG Export Plug-In . SVG Version: 6.00 Build 0)  -->
<!DOCTYPE svg PUBLIC "-//W3C//DTD SVG 1.1//EN" "http://www.w3.org/Graphics/SVG/1.1/DTD/svg11.dtd">
<svg version="1.1" id="Слой_1" xmlns="http://www.w3.org/2000/svg" xmlns:xlink="http://www.w3.org/1999/xlink" x="0px" y="0px"
	 width="471.992px" height="506.313px" viewBox="0 0 471.992 506.313" enable-background="new 0 0 471.992 506.313"
	 xml:space="preserve">
<g id="Слой_1_1_">
	<g display="none">
		<path display="inline" d="M735.345,33.557H468.82c-17.129,0-31.75,10.92-37.268,26.172c-1.521,4.197-2.354,8.727-2.354,13.447
			V368.52c0,21.843,17.77,39.619,39.619,39.619h266.523c3.916,0,7.707-0.565,11.281-1.643c16.363-4.863,28.34-20.053,28.34-37.979
			V73.176C774.968,51.327,757.185,33.557,735.345,33.557z M753.361,368.52c0,5.668-2.627,10.73-6.732,14.035
			c-3.086,2.488-7.012,3.979-11.281,3.979H468.82c-9.938,0-18.016-8.078-18.016-18.017V73.176c0-5.342,2.336-10.144,6.037-13.447
			c3.188-2.834,7.383-4.567,11.979-4.567h266.523c9.939,0,18.018,8.078,18.018,18.014V368.52L753.361,368.52z"/>
		<path display="inline" fill="#FFFFFF" d="M730.593,121.322v301.209c-3.574,1.074-7.365,1.643-11.281,1.643H452.785
			c-21.852,0-39.619-17.779-39.619-39.619V89.211c0-4.72,0.83-9.25,2.354-13.447h269.517
			C710.152,75.764,730.593,96.206,730.593,121.322z"/>
		<path display="inline" d="M665.044,478.443H398.512c-21.843,0-39.619-17.777-39.619-39.621V143.477
			c0-21.842,17.776-39.619,39.619-39.619h266.53c21.844,0,39.621,17.777,39.621,39.619v295.345
			C704.664,460.666,686.886,478.443,665.044,478.443z M398.512,125.468c-9.935,0-18.009,8.076-18.009,18.009v295.345
			c0,9.934,8.074,18.01,18.009,18.01h266.53c9.934,0,18.01-8.076,18.01-18.01V143.477c0-9.933-8.076-18.009-18.01-18.009H398.512z"
			/>
	</g>
	<path display="none" d="M707.208,58.847H426.654c-23,0-41.705,18.715-41.705,41.705v310.896c0,22.989,18.705,41.706,41.705,41.706
		h280.555c23,0,41.703-18.719,41.703-41.706V100.552C748.912,77.562,730.208,58.847,707.208,58.847z M726.169,411.448
		c0,10.45-8.502,18.953-18.961,18.953H426.654c-10.459,0-18.963-8.503-18.963-18.953V100.552c0-10.45,8.502-18.953,18.963-18.953
		h280.555c10.459,0,18.961,8.502,18.961,18.953L726.169,411.448L726.169,411.448z M619.179,330.1v123.058h88.027
		c23,0,41.705-18.716,41.705-41.706V330.1H619.179z M733.179,439.35h-90.25v-85.5h90.25V439.35z"/>
</g>
<g id="Capa_1">
	<g>
		<g>
			<path fill="#222222" d="M141.894,238.568h169.292c-5.621-3.642-12.836-7.594-21.647-11.848
				c-15.789-6.986-28.938-12-39.422-15.037c-32.351-9.416-53.542-19.216-63.567-29.392c-10.026-10.178-15.039-20.81-15.039-31.9
				c0-13.37,5.091-24.46,15.269-33.269c10.329-8.96,24.152-13.444,41.469-13.444c18.531,0,34.482,6.911,47.852,20.735
				c8.049,8.504,15.877,24.075,23.467,46.71l3.197,0.453l19.139,1.367l2.736-0.682c0.76-4.104,1.143-7.518,1.143-10.255
				c0-9.115-1.064-23.011-3.195-41.696c-1.678-12.148-3.268-21.115-4.785-26.888c-16.855-5.466-30.305-9.113-40.33-10.935
				c-17.771-2.887-30.459-4.331-38.047-4.331c-39.5,0-69.346,9.649-89.552,28.938c-20.354,19.443-30.531,42.916-30.531,70.41
				c0,13.821,3.646,28.099,10.938,42.834C133.766,227.177,137.64,233.254,141.894,238.568z"/>
			<path fill="#222222" d="M257.414,296.898c15.646,6.381,26.055,11.776,31.219,16.178c12.305,11.092,18.457,23.016,18.457,35.771
				c0,10.332-3.574,20.13-10.713,29.396c-6.834,9.109-16.098,15.652-27.797,19.593c-11.389,4.11-21.949,6.157-31.666,6.157
				c-11.087,0-21.113-1.676-30.076-5.016c-9.416-3.191-17.393-7.517-23.926-12.988c-6.834-5.62-12.913-12.761-18.229-21.42
				c-0.761-1.211-1.712-3.265-2.85-6.147c-1.138-2.89-2.851-7.141-5.127-12.757c-2.278-5.624-4.555-11.016-6.835-16.18l-23.24,0.457
				v10.022l-0.455,8.438c-0.15,5.768-0.15,10.934,0,15.49c0.301,7.289,0.455,19.139,0.455,35.55v2.963
				c0,2.128,0.606,3.794,1.82,5.015c2.279,1.814,7.747,3.945,16.406,6.377l31.898,9.113c12.303,3.497,27.115,5.244,44.431,5.244
				c18.687,0,34.097-1.598,46.255-4.789c11.092-2.738,22.701-7.751,34.863-15.037c10.936-6.992,19.217-13.14,24.838-18.463
				c7.282-7.439,12.684-15.338,16.176-23.697c6.233-15.342,9.344-31.443,9.344-48.301c0-8.055-0.527-15.039-1.588-20.965h-93.662
				v-0.006H257.414z"/>
			<path fill="#222222" d="M438.105,255.2c-1.369-1.366-3.113-2.047-5.242-2.047H39.129c-2.128,0-3.873,0.681-5.241,2.047
				c-1.363,1.364-2.05,3.114-2.05,5.245v14.576c0,2.131,0.683,3.877,2.05,5.246c1.368,1.364,3.116,2.041,5.241,2.041h393.734
				c2.129,0,3.873-0.677,5.242-2.041c1.364-1.369,2.049-3.115,2.049-5.246v-14.576C440.154,258.314,439.471,256.564,438.105,255.2z"
				/>
		</g>
	</g>
</g>
</svg>
