<?xml version="1.0" encoding="utf-8"?>
<!-- Generator: Adobe Illustrator 16.0.3, SVG Export Plug-In . SVG Version: 6.00 Build 0)  -->
<!DOCTYPE svg PUBLIC "-//W3C//DTD SVG 1.1//EN" "http://www.w3.org/Graphics/SVG/1.1/DTD/svg11.dtd">
<svg version="1.1" id="Слой_1" xmlns="http://www.w3.org/2000/svg" xmlns:xlink="http://www.w3.org/1999/xlink" x="0px" y="0px"
	 width="471.992px" height="506.313px" viewBox="0 0 471.992 506.313" enable-background="new 0 0 471.992 506.313"
	 xml:space="preserve">
<g id="Слой_1_1_">
	<g display="none">
		<path display="inline" d="M735.345,33.557H468.82c-17.129,0-31.75,10.92-37.268,26.172c-1.521,4.197-2.354,8.727-2.354,13.447
			V368.52c0,21.843,17.77,39.619,39.619,39.619h266.523c3.916,0,7.707-0.565,11.281-1.643c16.363-4.863,28.34-20.053,28.34-37.979
			V73.176C774.968,51.327,757.185,33.557,735.345,33.557z M753.361,368.52c0,5.668-2.627,10.73-6.732,14.035
			c-3.086,2.488-7.012,3.979-11.281,3.979H468.82c-9.938,0-18.016-8.078-18.016-18.017V73.176c0-5.342,2.336-10.144,6.037-13.447
			c3.188-2.834,7.383-4.567,11.979-4.567h266.523c9.939,0,18.018,8.078,18.018,18.014V368.52L753.361,368.52z"/>
		<path display="inline" fill="#FFFFFF" d="M730.593,121.322v301.209c-3.574,1.074-7.365,1.643-11.281,1.643H452.785
			c-21.852,0-39.619-17.779-39.619-39.619V89.211c0-4.72,0.83-9.25,2.354-13.447h269.517
			C710.152,75.764,730.593,96.206,730.593,121.322z"/>
		<path display="inline" d="M665.044,478.443H398.512c-21.843,0-39.619-17.777-39.619-39.621V143.477
			c0-21.842,17.776-39.619,39.619-39.619h266.53c21.844,0,39.621,17.777,39.621,39.619v295.345
			C704.664,460.666,686.886,478.443,665.044,478.443z M398.512,125.468c-9.935,0-18.009,8.076-18.009,18.009v295.345
			c0,9.934,8.074,18.01,18.009,18.01h266.53c9.934,0,18.01-8.076,18.01-18.01V143.477c0-9.933-8.076-18.009-18.01-18.009H398.512z"
			/>
	</g>
	<path display="none" d="M707.208,58.847H426.654c-23,0-41.705,18.715-41.705,41.705v310.896c0,22.989,18.705,41.706,41.705,41.706
		h280.555c23,0,41.703-18.719,41.703-41.706V100.552C748.912,77.562,730.208,58.847,707.208,58.847z M726.169,411.448
		c0,10.45-8.502,18.953-18.961,18.953H426.654c-10.459,0-18.963-8.503-18.963-18.953V100.552c0-10.45,8.502-18.953,18.963-18.953
		h280.555c10.459,0,18.961,8.502,18.961,18.953L726.169,411.448L726.169,411.448z M619.179,330.1v123.058h88.027
		c23,0,41.705-18.716,41.705-41.706V330.1H619.179z M733.179,439.35h-90.25v-85.5h90.25V439.35z"/>
</g>
<g id="Capa_1">
	<g>
		<g>
			<path fill="#333333" d="M71.935,99.81c18.535,0.456,29.699,3.42,33.494,8.876c2.581,3.803,3.874,19.978,3.874,48.535v75.88
				c0,23.852,1.213,41.851,3.643,54.004c3.347,18.074,9.649,32.89,18.915,44.433c9.111,11.394,22.71,20.664,40.785,27.801
				c17.774,6.986,39.346,10.479,64.711,10.479c22.178,0,41.549-2.503,58.109-7.517c16.251-4.861,30.077-11.625,41.467-20.282
				c11.246-8.809,19.752-18.151,25.521-28.026c3.948-6.987,7.067-16.257,9.347-27.794c3.189-16.557,4.331-39.654,3.42-69.274
				c-2.125-57.272-3.798-87.349-5.015-90.235c0-1.669-0.115-4.024-0.339-7.062c-0.23-3.04-0.346-5.087-0.346-6.152
				c0-3.949,1.143-7.066,3.42-9.342c0.916-0.911,6.912-2.204,18.002-3.876c5.927-0.151,12.31-1.143,19.144-2.962
				c0.611-3.645,0.909-5.999,0.909-7.064c0-1.975-0.45-5.85-1.363-11.619l-4.102-0.455c-18.23,1.976-33.117,2.732-44.664,2.277
				l-46.709-2.277h-19.141l-0.459,19.598l3.192,0.682l22.787-0.455c6.526-0.151,12.377,2.433,17.542,7.75
				c2.884,3.189,4.711,9.871,5.468,20.05l0.907,13.447c0.917,13.063,1.939,25.176,3.08,36.34
				c1.143,11.165,1.979,20.471,2.508,27.912c0.53,7.445,0.798,17.167,0.798,29.168c0,23.698-1.596,41.086-4.784,52.175
				c-2.578,8.811-6.609,17.474-12.072,25.979c-2.59,4.255-7.524,9.114-14.819,14.587c-6.526,5.01-14.044,8.883-22.556,11.616
				c-13.217,4.256-27.725,6.38-43.52,6.38c-13.523,0-26.962-3.566-40.332-10.712c-9.266-5.009-16.556-11.995-21.873-20.959
				c-6.833-11.847-10.709-27.194-11.62-46.032l-3.191-63.799l-0.232-52.175c0-0.908-0.039-2.846-0.114-5.808
				c-0.076-2.962-0.114-5.426-0.114-7.403c0-17.925,0.986-27.948,2.96-30.076c2.89-3.8,8.889-5.698,18.003-5.698
				c9.725,0,19.142-0.682,28.256-2.049v-2.051l-0.455-14.583l0.227-3.191c-4.556,0.304-11.087,0.457-19.595,0.457
				c-4.555,0.151-15.646,0.531-33.268,1.139c-12.46,0.456-25.219,0.682-38.282,0.682c-5.166,0-17.773-0.528-37.826-1.594
				c-7.898-0.607-16.406-0.909-25.521-0.909c-4.103,0-7.141,0.073-9.114,0.227l0.685,20.053
				C62.896,99.203,66.313,99.508,71.935,99.81z"/>
			<path fill="#333333" d="M403.7,398.992H68.291c-2.126,0-3.874,0.683-5.241,2.052c-1.369,1.368-2.05,3.112-2.05,5.24v14.583
				c0,2.127,0.684,3.875,2.05,5.24c1.367,1.368,3.112,2.049,5.241,2.049H403.7c2.13,0,3.877-0.681,5.243-2.049
				c1.365-1.365,2.046-3.113,2.046-5.24v-14.583c0-2.128-0.683-3.872-2.046-5.24C407.578,399.676,405.83,398.992,403.7,398.992z"/>
		</g>
	</g>
</g>
</svg>
