<?xml version="1.0" encoding="utf-8"?>
<!-- Generator: Adobe Illustrator 16.0.3, SVG Export Plug-In . SVG Version: 6.00 Build 0)  -->
<!DOCTYPE svg PUBLIC "-//W3C//DTD SVG 1.1//EN" "http://www.w3.org/Graphics/SVG/1.1/DTD/svg11.dtd">
<svg version="1.1" id="Layer_1" xmlns="http://www.w3.org/2000/svg" xmlns:xlink="http://www.w3.org/1999/xlink" x="0px" y="0px"
	 width="506.325px" height="506.324px" viewBox="0 0 506.325 506.324" enable-background="new 0 0 506.325 506.324"
	 xml:space="preserve">
<path d="M427.563,279.662v22.16h-49.471v18h49.471v73.62c0,5.229-2.12,9.97-5.561,13.399c-0.21,0.21-0.43,0.42-0.66,0.63
	c-0.439,0.41-0.91,0.801-1.399,1.16c-1.7,1.28-3.62,2.28-5.7,2.92c-1.78,0.551-3.67,0.851-5.63,0.851h-83.73v-43.92h-18v43.92
	h-107.44v-43.92h-18v43.92h-83.73c-10.45,0-18.95-8.5-18.95-18.96v-73.62h49.47v-18h-49.47v-97.32h49.47v-18h-49.47v-73.62
	c0-10.46,8.5-18.96,18.95-18.96h83.73v43.92h18v-43.92h25.01v-22.74H97.712c-22.98,0-41.7,18.7-41.7,41.7v280.56
	c0,23,18.71,41.7,41.7,41.7h310.9c22.99,0,41.7-18.7,41.7-41.7v-113.78H427.563z M181.442,93.922v43.92h18v-43.92H181.442z
	 M181.442,368.483v43.92h18v-43.92H181.442z M306.882,368.483v43.92h18v-43.92H306.882z M378.092,301.823v18h49.471v-18H378.092z
	 M78.763,301.823v18h49.47v-18H78.763z M78.763,186.502v18h49.47v-18H78.763z M306.882,368.483v43.92h18v-43.92H306.882z
	 M181.442,93.922v43.92h18v-43.92H181.442z M181.442,368.483v43.92h18v-43.92H181.442z M78.763,186.502v18h49.47v-18H78.763z
	 M378.092,301.823v18h49.471v-18H378.092z M78.763,301.823v18h49.47v-18H78.763z"/>
<path d="M393.75,134.714l-29.967-29.97L249.025,219.507l-12.879,42.857l42.836-12.881L393.75,134.714z M447.556,104.211
	L282.738,269.031c-0.863,1.076-2.047,1.91-3.469,2.338l-60.699,18.248c-2.58,0.764-5.254,0-7.031-1.777l-0.385-0.49l-0.496-0.381
	c-1.775-1.777-2.541-4.461-1.768-7.041l18.244-60.698c0.422-1.402,1.238-2.571,2.295-3.438L394.281,50.942
	c3.678-3.68,9.641-3.68,13.32,0l19.977,19.97l19.98,19.986C451.232,94.569,451.232,100.54,447.556,104.211z M420.722,101.749
	l-11.873-11.878L396.746,77.77c-1.654-1.649-4.34-1.649-5.994,0.007l-20.973,20.968l29.967,29.971l20.977-20.977
	C422.376,106.091,422.376,103.405,420.722,101.749z"/>
</svg>
