<?xml version="1.0" encoding="utf-8"?>
<!-- Generator: Adobe Illustrator 16.0.3, SVG Export Plug-In . SVG Version: 6.00 Build 0)  -->
<!DOCTYPE svg PUBLIC "-//W3C//DTD SVG 1.1//EN" "http://www.w3.org/Graphics/SVG/1.1/DTD/svg11.dtd">
<svg version="1.1" id="Layer_1" xmlns="http://www.w3.org/2000/svg" xmlns:xlink="http://www.w3.org/1999/xlink" x="0px" y="0px"
	 width="506.325px" height="506.325px" viewBox="0 0.008 506.325 506.325" enable-background="new 0 0.008 506.325 506.325"
	 xml:space="preserve">
<path d="M408.612,71.191h-310.9c-22.98,0-41.7,18.699-41.7,41.699v280.559c0,23,18.71,41.701,41.7,41.701h310.9
	c22.988,0,41.699-18.701,41.699-41.701V112.89C450.313,89.89,431.602,71.191,408.612,71.191z M427.563,393.449
	c0,5.229-2.12,9.971-5.562,13.399c-0.21,0.212-0.43,0.421-0.66,0.632c-0.438,0.409-0.91,0.799-1.398,1.159
	c-1.7,1.279-3.62,2.279-5.7,2.921c-1.78,0.549-3.67,0.85-5.63,0.85h-310.9c-10.45,0-18.95-8.5-18.95-18.961V112.89
	c0-10.46,8.5-18.96,18.95-18.96h310.9c10.45,0,18.95,8.5,18.95,18.96V393.449z M324.879,412.41h-18V93.93h18V412.41z
	 M199.445,412.41h-18V93.93h18V412.41z M427.563,204.51h-348.8v-18h348.8V204.51z M427.563,319.83h-348.8v-18h348.8V319.83z"/>
</svg>
