<?xml version="1.0" encoding="utf-8"?>
<!-- Generator: Adobe Illustrator 16.0.3, SVG Export Plug-In . SVG Version: 6.00 Build 0)  -->
<!DOCTYPE svg PUBLIC "-//W3C//DTD SVG 1.1//EN" "http://www.w3.org/Graphics/SVG/1.1/DTD/svg11.dtd">
<svg version="1.1" id="Слой_1" xmlns="http://www.w3.org/2000/svg" xmlns:xlink="http://www.w3.org/1999/xlink" x="0px" y="0px"
	 width="471.997px" height="506.324px" viewBox="0 0 471.997 506.324" enable-background="new 0 0 471.997 506.324"
	 xml:space="preserve">
<g>
	<path d="M346.752,254.169l32.604,27.863c40.475-29.709,71.318-82.642,71.318-139.291c0-45.479-25.514-70.565-54.615-70.565
		c-26.422,0-47.545,22.271-47.545,50.192c0,26.916,18.461,47.307,43.137,47.307c4.408,0,10.557-1.845,11.477-1.845
		C399.577,197.53,374.95,234.657,346.752,254.169z"/>
	<path d="M268.449,169.675c3.532,0,9.751-1.845,11.478-1.845c-3.5,29.696-28.179,66.826-56.359,86.337l32.585,27.865
		c40.474-29.709,71.3-82.642,71.3-139.291c0-45.479-25.497-70.565-54.599-70.565c-26.387,0-47.512,22.271-47.512,50.191
		C225.342,149.284,243.772,169.675,268.449,169.675z"/>
</g>
<path d="M39.846,113.876v280.56c0,23,18.71,41.701,41.7,41.701h310.9c22.988,0,41.699-18.701,41.699-41.701v-65.58h-22.75v65.58
	c0,10.461-8.5,18.961-18.949,18.961h-310.9c-10.45,0-18.95-8.5-18.95-18.961v-280.56c0-10.461,8.5-18.961,18.95-18.961h95.11V72.176
	h-95.11C58.556,72.176,39.846,90.876,39.846,113.876z"/>
</svg>
