<?xml version="1.0" encoding="utf-8"?>
<!-- Generator: Adobe Illustrator 16.0.3, SVG Export Plug-In . SVG Version: 6.00 Build 0)  -->
<!DOCTYPE svg PUBLIC "-//W3C//DTD SVG 1.1//EN" "http://www.w3.org/Graphics/SVG/1.1/DTD/svg11.dtd">
<svg version="1.1" id="Слой_1" xmlns="http://www.w3.org/2000/svg" xmlns:xlink="http://www.w3.org/1999/xlink" x="0px" y="0px"
	 width="471.997px" height="506.324px" viewBox="0 0 471.997 506.324" enable-background="new 0 0 471.997 506.324"
	 xml:space="preserve">
<path display="none" d="M391.45,71.172H80.549c-3.23,0-6.38,0.37-9.4,1.07c-1.01,0.23-2,0.5-2.98,0.812
	c-0.98,0.3-1.95,0.64-2.89,1.02c-1.89,0.75-3.72,1.63-5.47,2.63c-0.58,0.34-1.15,0.69-1.72,1.05c-0.28,0.182-0.56,0.37-0.84,0.552
	c-1.38,0.938-2.71,1.96-3.97,3.05c-8.83,7.66-14.43,18.95-14.43,31.528v280.551c0,23,18.71,41.711,41.7,41.711H391.45
	c4.67,0,9.16-0.771,13.357-2.2c0.643-0.21,1.281-0.45,1.91-0.7c1.893-0.75,3.723-1.63,5.473-2.63c0.578-0.34,1.148-0.688,1.719-1.05
	c0.281-0.181,0.561-0.36,0.84-0.551c0.691-0.472,1.371-0.96,2.031-1.472c0.66-0.51,1.309-1.038,1.938-1.578
	c0.762-0.66,1.5-1.342,2.201-2.052c7.561-7.55,12.23-17.97,12.23-29.47V112.881C433.149,89.882,414.44,71.172,391.45,71.172z
	 M410.399,393.442c0,10.46-8.5,18.96-18.949,18.96H80.549c-10.45,0-18.95-8.5-18.95-18.971V112.881c0-10.47,8.5-18.97,18.95-18.97
	H391.45c10.449,0,18.949,8.5,18.949,18.97V393.442L410.399,393.442z"/>
<g display="none">
	<polygon display="inline" points="434.499,437.517 325.131,387.918 325.131,420.943 37.499,420.943 37.499,453.472 
		325.131,453.472 325.131,485.511 	"/>
	<g display="inline">
		<path fill="#888888" d="M79.173,313.385c-10.028,0-18.5-5.823-18.5-12.716V96.887c0-6.893,8.472-12.716,18.5-12.716h100.303
			c10.028,0,18.5,5.823,18.5,12.716V300.67c0,6.893-8.472,12.716-18.5,12.716H79.173z"/>
		<path d="M179.476,95.172c4.131,0,6.683,1.599,7.5,2.465V299.92c-0.817,0.866-3.369,2.466-7.5,2.466H79.173
			c-4.132,0-6.683-1.599-7.5-2.465V97.635c0.816-0.866,3.368-2.464,7.5-2.464H179.476 M179.476,73.172H79.173
			c-16.294,0-29.5,10.618-29.5,23.716V300.67c0,13.096,13.206,23.716,29.5,23.716h100.303c16.292,0,29.5-10.62,29.5-23.716V96.887
			C208.976,83.789,195.768,73.172,179.476,73.172L179.476,73.172z"/>
	</g>
	<g display="inline">
		<path d="M392.823,95.172c4.132,0,6.685,1.598,7.501,2.464v202.285c-0.816,0.866-3.369,2.465-7.501,2.465h-100.3
			c-4.132,0-6.684-1.599-7.5-2.465V97.635c0.816-0.866,3.368-2.464,7.5-2.464H392.823 M392.823,73.172h-100.3
			c-16.294,0-29.5,10.618-29.5,23.716V300.67c0,13.096,13.206,23.716,29.5,23.716h100.3c16.295,0,29.501-10.62,29.501-23.716V96.887
			C422.324,83.789,409.118,73.172,392.823,73.172L392.823,73.172z"/>
	</g>
</g>
<polygon points="448.499,342.295 416.459,342.295 416.459,54.662 383.93,54.662 383.93,342.295 350.905,342.295 400.504,451.662 "/>
<g>
	<g>
		<path d="M277.171,110.999c0.717,0,1.716,0.954,1.716,2.506v83.315c0,1.552-0.999,2.504-1.716,2.504H73.389
			c-0.716,0-1.716-0.953-1.716-2.504v-83.315c0-1.552,1-2.506,1.716-2.506H277.171 M277.171,88.999H73.389
			c-13.098,0-23.716,10.97-23.716,24.506v83.315c0,13.535,10.618,24.504,23.716,24.504h203.782c13.096,0,23.716-10.97,23.716-24.504
			v-83.315C300.887,99.969,290.267,88.999,277.171,88.999L277.171,88.999z"/>
	</g>
	<g>
		<path fill="#888888" d="M73.389,406.324c-7.012,0-12.716-6.058-12.716-13.504v-83.314c0-7.447,5.704-13.506,12.716-13.506h203.782
			c7.012,0,12.716,6.059,12.716,13.506v83.314c0,7.446-5.704,13.504-12.716,13.504H73.389z"/>
		<path d="M277.171,307c0.717,0,1.716,0.953,1.716,2.506v83.314c0,1.552-0.999,2.504-1.716,2.504H73.389
			c-0.716,0-1.716-0.952-1.716-2.504v-83.314c0-1.553,1-2.506,1.716-2.506H277.171 M277.171,285H73.389
			c-13.098,0-23.716,10.969-23.716,24.506v83.314c0,13.535,10.618,24.504,23.716,24.504h203.782
			c13.096,0,23.716-10.969,23.716-24.504v-83.314C300.887,295.969,290.267,285,277.171,285L277.171,285z"/>
	</g>
</g>
</svg>
