<?xml version="1.0" encoding="utf-8"?>
<!-- Generator: Adobe Illustrator 16.0.3, SVG Export Plug-In . SVG Version: 6.00 Build 0)  -->
<!DOCTYPE svg PUBLIC "-//W3C//DTD SVG 1.1//EN" "http://www.w3.org/Graphics/SVG/1.1/DTD/svg11.dtd">
<svg version="1.1" id="Слой_1" xmlns="http://www.w3.org/2000/svg" xmlns:xlink="http://www.w3.org/1999/xlink" x="0px" y="0px"
	 width="471.997px" height="506.324px" viewBox="0 0 471.997 506.324" enable-background="new 0 0 471.997 506.324"
	 xml:space="preserve">
<path display="none" d="M391.149,95.181c9.924,0,18,8.073,18,18v279.961c0,9.925-8.076,18-18,18h-310.3c-9.925,0-18-8.075-18-18
	V113.181c0-9.927,8.075-18,18-18H391.149 M391.149,71.181h-310.3c-23.196,0-42,18.804-42,42v279.961c0,23.194,18.804,42,42,42h310.3
	c23.193,0,42-18.806,42-42V113.181C433.149,89.986,414.342,71.181,391.149,71.181L391.149,71.181z"/>
<polygon fill="none" stroke="#000000" stroke-width="24" stroke-linecap="round" stroke-linejoin="round" stroke-miterlimit="10" points="
	412.811,83.608 412.811,422.718 370.299,398.111 301.691,431.328 239.36,373.953 163.578,431.328 103.489,383.617 59.186,419.334 
	59.186,86.99 103.489,122.708 163.578,74.996 239.36,132.371 301.691,74.996 370.299,108.213 "/>
</svg>
