<?xml version="1.0" encoding="utf-8"?>
<!-- Generator: Adobe Illustrator 16.0.3, SVG Export Plug-In . SVG Version: 6.00 Build 0)  -->
<!DOCTYPE svg PUBLIC "-//W3C//DTD SVG 1.1//EN" "http://www.w3.org/Graphics/SVG/1.1/DTD/svg11.dtd">
<svg version="1.1" id="Слой_1" xmlns="http://www.w3.org/2000/svg" xmlns:xlink="http://www.w3.org/1999/xlink" x="0px" y="0px"
	 width="471.997px" height="506.324px" viewBox="0 0 471.997 506.324" enable-background="new 0 0 471.997 506.324"
	 xml:space="preserve">
<path display="none" d="M391.45,71.172H80.549c-3.23,0-6.38,0.37-9.4,1.07c-1.01,0.23-2,0.5-2.98,0.813
	c-0.98,0.3-1.95,0.64-2.89,1.02c-1.89,0.75-3.72,1.63-5.47,2.63c-0.58,0.34-1.15,0.69-1.72,1.05c-0.28,0.183-0.56,0.37-0.84,0.553
	c-1.38,0.938-2.71,1.96-3.97,3.05c-8.83,7.66-14.43,18.95-14.43,31.527v280.552c0,23,18.71,41.711,41.7,41.711H391.45
	c4.67,0,9.16-0.771,13.357-2.2c0.643-0.21,1.281-0.45,1.91-0.7c1.893-0.75,3.723-1.63,5.473-2.63c0.578-0.34,1.148-0.688,1.719-1.05
	c0.281-0.181,0.561-0.36,0.84-0.551c0.691-0.472,1.371-0.96,2.031-1.472c0.66-0.511,1.309-1.038,1.938-1.578
	c0.762-0.66,1.5-1.343,2.201-2.053c7.561-7.55,12.23-17.97,12.23-29.47V112.881C433.149,89.882,414.44,71.172,391.45,71.172z
	 M410.399,393.442c0,10.46-8.5,18.96-18.949,18.96H80.549c-10.45,0-18.95-8.5-18.95-18.971V112.881c0-10.47,8.5-18.97,18.95-18.97
	H391.45c10.449,0,18.949,8.5,18.949,18.97V393.442L410.399,393.442z"/>
<polygon points="434.499,437.517 325.131,387.918 325.131,420.943 37.499,420.943 37.499,453.472 325.131,453.472 325.131,485.511 
	"/>
<g>
	<path fill="#888888" d="M392.825,313.386H292.521c-10.028,0-18.5-5.823-18.5-12.717V96.887c0-6.894,8.472-12.717,18.5-12.717
		h100.304c10.027,0,18.5,5.823,18.5,12.717v203.781C411.325,307.562,402.852,313.385,392.825,313.386L392.825,313.386z"/>
	<path d="M292.521,95.171h100.304c4.131,0,6.684,1.599,7.5,2.465v202.285c-0.818,0.866-3.369,2.466-7.5,2.466H292.521
		c-4.131,0-6.683-1.601-7.5-2.467V97.637C285.838,96.771,288.39,95.172,292.521,95.171 M292.521,73.172
		c-16.292,0-29.5,10.617-29.5,23.716V300.67c0,13.097,13.208,23.717,29.5,23.717h100.304c16.293,0,29.5-10.62,29.5-23.717V96.888
		c0-13.099-13.207-23.717-29.5-23.717H292.521L292.521,73.172z"/>
</g>
<g>
	<path d="M79.174,95.171h100.3c4.132,0,6.685,1.599,7.5,2.465v202.285c-0.815,0.866-3.368,2.466-7.5,2.466h-100.3
		c-4.133,0-6.686-1.6-7.502-2.466V97.636C72.489,96.77,75.042,95.172,79.174,95.171 M79.174,73.172
		c-16.295,0-29.502,10.617-29.502,23.716V300.67c0,13.097,13.207,23.717,29.502,23.717h100.3c16.294,0,29.5-10.62,29.5-23.717
		V96.888c0-13.099-13.206-23.717-29.5-23.717H79.174L79.174,73.172z"/>
</g>
</svg>
