<?xml version="1.0" encoding="utf-8"?>
<!-- Generator: Adobe Illustrator 16.0.3, SVG Export Plug-In . SVG Version: 6.00 Build 0)  -->
<!DOCTYPE svg PUBLIC "-//W3C//DTD SVG 1.1//EN" "http://www.w3.org/Graphics/SVG/1.1/DTD/svg11.dtd">
<svg version="1.1" id="Слой_1" xmlns="http://www.w3.org/2000/svg" xmlns:xlink="http://www.w3.org/1999/xlink" x="0px" y="0px"
	 width="471.997px" height="506.324px" viewBox="0 0 471.997 506.324" enable-background="new 0 0 471.997 506.324"
	 xml:space="preserve">
<path d="M391.449,71.172h-310.9c-3.23,0-6.38,0.37-9.4,1.07c-1.01,0.23-2,0.5-2.98,0.81c-0.98,0.3-1.95,0.64-2.89,1.02
	c-1.89,0.75-3.72,1.63-5.47,2.63c-0.58,0.34-1.15,0.69-1.72,1.05c-0.28,0.18-0.56,0.37-0.84,0.55c-1.38,0.94-2.71,1.96-3.97,3.05
	c-8.83,7.66-14.43,18.95-14.43,31.53v280.549c0,23,18.71,41.711,41.7,41.711h310.9c4.67,0,9.16-0.771,13.359-2.2
	c0.641-0.21,1.28-0.45,1.91-0.7c1.891-0.75,3.721-1.63,5.471-2.63c0.579-0.34,1.149-0.69,1.72-1.05c0.28-0.181,0.56-0.36,0.84-0.551
	c0.69-0.47,1.37-0.96,2.03-1.47s1.31-1.04,1.939-1.58c0.761-0.66,1.5-1.34,2.2-2.05c7.561-7.55,12.23-17.97,12.23-29.47v-280.56
	C433.149,89.882,414.439,71.172,391.449,71.172z M410.399,393.442c0,10.46-8.5,18.96-18.95,18.96h-310.9
	c-10.45,0-18.95-8.5-18.95-18.971V112.882c0-10.47,8.5-18.97,18.95-18.97h310.9c10.45,0,18.95,8.5,18.95,18.97V393.442z"/>
</svg>
