<?xml version="1.0" encoding="utf-8"?>
<!-- Generator: Adobe Illustrator 16.0.3, SVG Export Plug-In . SVG Version: 6.00 Build 0)  -->
<!DOCTYPE svg PUBLIC "-//W3C//DTD SVG 1.1//EN" "http://www.w3.org/Graphics/SVG/1.1/DTD/svg11.dtd">
<svg version="1.1" id="Слой_1" xmlns="http://www.w3.org/2000/svg" xmlns:xlink="http://www.w3.org/1999/xlink" x="0px" y="0px"
	 width="4524px" height="2336.11px" viewBox="0 0 4524 2336.11" enable-background="new 0 0 4524 2336.11" xml:space="preserve">
<path display="none" fill="#FFFFFF" stroke="#000000" stroke-width="20" stroke-miterlimit="10" d="M4368.92,1245.628
	c0,550.87-31.729,997.72-70.92,999.99c-0.1,0.01-0.2,0.01-0.3,0.01c-39.33,0-71.21-447.72-71.21-1000s31.88-1000,71.21-1000
	c0.1,0,0.2,0,0.3,0.01C4337.19,247.908,4368.92,694.758,4368.92,1245.628z"/>
<path fill="#FFFFFF" stroke="#000000" stroke-width="20" stroke-miterlimit="10" d="M4226.49,1245.628
	c0,550.87,31.73,997.72,70.92,999.99c0.1,0.01,0.2,0.01,0.3,0.01c39.33,0,248.7-497.72,248.7-1050s-209.37-950-248.7-950
	c-0.1,0-0.2,0-0.3,0.01C4258.221,247.908,4226.49,694.758,4226.49,1245.628z"/>
<path display="none" fill="#FFFFFF" stroke="#000000" stroke-width="20" stroke-miterlimit="10" d="M299.92,1245.628
	c0,550.87-31.73,997.72-70.92,999.99c-0.1,0.01-0.2,0.01-0.3,0.01c-39.33,0-71.21-447.72-71.21-1000s31.88-1000,71.21-1000
	c0.1,0,0.2,0,0.3,0.01C268.19,247.908,299.92,694.758,299.92,1245.628z"/>
<path fill="#FFFFFF" stroke="#000000" stroke-width="20" stroke-miterlimit="10" d="M299.92,1245.628
	c0,550.87-31.73,997.72-70.92,999.99c-0.1,0.01-0.2,0.01-0.3,0.01c-39.33,0-248.7-497.72-248.7-1050s209.37-950,248.7-950
	c0.1,0,0.2,0,0.3,0.01C268.19,247.908,299.92,694.758,299.92,1245.628z"/>
<rect x="-225" y="-182.372" fill="#FFFFFF" stroke="#000000" stroke-width="20" stroke-miterlimit="10" width="5000" height="1762"/>
<path fill="#3399FF" stroke="#000000" stroke-width="20" stroke-miterlimit="10" d="M4226.49,1245.628
	c0,552.28,31.88,1000,71.21,1000H229v-0.01c39.19-2.271,70.92-449.12,70.92-999.99s-31.73-997.72-70.92-999.99v-0.01h4068.7
	C4258.37,245.628,4226.49,693.348,4226.49,1245.628z"/>
<g>
	<g>
		<path fill="#FFFFFF" d="M784.678,1906.163v-138.816h-46.009v-22.268h46.009v-7.685c0-22.623,10.172-43.229,37.975-56.217
			c22.321-10.649,52.127-14.991,79.869-14.991c21.022,0,39.302,2.348,50.798,4.666l-8.109,22.622
			c-8.818-2.003-21.012-3.632-37.929-3.632c-50.813,0-63.695,21.914-63.695,46.58v8.656h79.253v22.268h-79.253v138.816H784.678z"/>
		<path fill="#FFFFFF" d="M976.373,1795.326c0-18.98-0.643-35.267-2.706-50.247h52.171l2.009,31.61h2.705
			c14.905-21.631,50.799-35.243,90.774-35.243c6.768,0,11.496,0.291,16.923,0.97v27.624c-6.131-0.679-12.179-0.992-20.333-0.992
			c-41.999,0-71.76,15.621-79.913,37.604c-1.33,3.989-2.723,8.652-2.723,13.674v85.838h-58.907V1795.326z"/>
		<path fill="#FFFFFF" d="M1375.975,1906.163l-4.744-20.286h-2.008c-18.28,12.66-53.488,23.987-100.216,23.987
			c-66.388,0-100.263-22.996-100.263-46.316c0-38.892,70.44-60.207,197.083-59.913v-3.311c0-13.319-7.451-37.289-74.512-37.289
			c-30.433,0-62.257,4.668-85.286,12.003l-13.537-19.311c27.109-8.645,66.356-14.281,107.667-14.281
			c100.218,0,124.59,33.592,124.59,65.902v60.207c0,14.01,1.378,27.613,5.432,38.607H1375.975z M1367.236,1823.961
			c-65.061-0.677-138.852,4.961-138.852,36.296c0,18.97,25.706,27.957,56.165,27.957c42.659,0,69.773-13.31,79.261-26.982
			c2.017-2.978,3.426-6.337,3.426-9.295V1823.961z"/>
		<path fill="#FFFFFF" d="M1520.972,1788.655c0-16.632-0.614-30.248-2.706-43.576h52.17l2.698,25.971h2.016
			c18.302-15.322,48.781-29.604,102.973-29.604c44.647,0,78.537,13.27,92.724,32.229h1.404c10.13-8.949,23.027-15.944,36.506-20.964
			c19.693-7.278,41.33-11.265,72.463-11.265c43.362,0,107.718,13.948,107.718,69.889v94.828h-58.222v-91.192
			c0-30.922-23.025-49.618-71.102-49.618c-33.876,0-60.311,12.369-70.456,26.67c-2.722,3.979-4.76,9.275-4.76,14.629v99.512h-58.201
			v-96.497c0-25.617-23.04-44.313-68.41-44.313c-37.271,0-64.335,14.647-73.794,29.334c-3.396,4.341-4.728,9.293-4.728,14.313
			v97.164h-58.293V1788.655z"/>
		<path fill="#FFFFFF" d="M2119.118,1830.984c1.334,39.588,52.806,55.884,112.433,55.884c42.638,0,68.373-3.655,90.713-8.33
			l10.147,20.955c-20.963,4.675-56.889,10.037-109.007,10.037c-100.886,0-161.17-32.642-161.17-81.229
			c0-48.577,58.218-86.855,153.735-86.855c106.94,0,135.429,46.234,135.429,75.863c0,5.975-1.381,10.658-2.021,13.675H2119.118z
			 M2293.821,1809.963c0.69-18.627-15.589-47.565-82.594-47.565c-60.297,0-86.676,27.289-91.419,47.565H2293.821z"/>
		<path fill="#FFFFFF" d="M2449.026,1745.079l43.282,81.857c9.475,17.996,18.285,34.628,24.408,51.259h2.031
			c7.423-16.287,18.288-33.618,29.09-50.925l53.502-82.191h50.109l50.782,80.549c12.208,19.305,21.712,36.28,29.146,52.567h2.023
			c5.418-16.287,14.209-33.263,25.046-52.232l46.742-80.884h58.922l-105.664,161.084h-54.162l-50.109-76.898
			c-11.495-17.93-21.007-33.938-29.146-52.919h-1.333c-8.124,19.313-18.284,35.944-29.821,53.274l-52.799,76.543h-54.164
			l-98.873-161.084H2449.026z"/>
		<path fill="#FFFFFF" d="M3213.657,1824.313c0,59.577-83.996,85.551-163.238,85.551c-88.695,0-157.069-31.946-157.069-82.928
			c0-53.88,71.772-85.49,162.503-85.49C3149.968,1741.446,3213.657,1775.038,3213.657,1824.313z M2953.644,1825.963
			c0,35.269,41.271,61.916,99.501,61.916c56.887,0,99.529-26.314,99.529-62.594c0-27.288-27.742-61.917-98.215-61.917
			C2984.062,1763.368,2953.644,1795.326,2953.644,1825.963z"/>
		<path fill="#FFFFFF" d="M3288.935,1795.326c0-18.98-0.67-35.267-2.757-50.247h52.159l2.09,31.61h2.645
			c14.901-21.631,50.844-35.243,90.741-35.243c6.8,0,11.494,0.291,16.936,0.97v27.624c-6.1-0.679-12.173-0.992-20.313-0.992
			c-41.952,0-71.773,15.621-79.904,37.604c-1.357,3.989-2.657,8.652-2.657,13.674v85.838h-58.939V1795.326z"/>
		<path fill="#FFFFFF" d="M3572.038,1818.961h1.408c8.08-5.638,19.595-12.644,29.082-18.282l96.18-55.6h71.698l-126.612,66.256
			l144.24,94.828h-72.416l-113.09-77.241l-30.49,16.708v60.533h-58.952V1669.84h58.952V1818.961z"/>
	</g>
	<g>
		<path fill="#FFFFFF" d="M2775,737.628v230h618.991c100.199,0,187.089,39.791,258.618,80.285
			c70.887,39.955,107.391,108.592,107.391,165.626v206.716c0,57.529-36.504,84.871-107.391,125.354
			c-71.529,40.482-158.419,39.02-258.618,39.02H2352.36l147.347-146H3389v-283h-722.428c-100.243,0-180.193-6.219-250.588-46.186
			c-71.541-40.463-99.984-75.461-99.984-132.485v-177.43c0-37.762,13.092-74.91,41.947-107.605
			c14.715-16.704,34.412-30.927,58.603-44.798c70.391-39.967,149.779-65.496,250.022-65.496h1167.78l-29.227,26.277
			l-134.896,129.723H2775z"/>
		<g>
			<path fill="#FFFFFF" d="M1133,1438.628v-283h354.261l191.348-187h-545.897c-100.201,0-189.435,39.346-260.966,79.841
				C800.849,1088.425,762,1156.616,762,1213.65v206.716c0,57.531,38.849,84.815,109.745,125.298
				c71.531,40.484,160.765,38.964,260.966,38.964h355.645l148.703-146H1133z"/>
			<path fill="#FFFFFF" d="M2207,799.639v784.989h-458v-847H856.48L721.575,607.905l-29.228-26.277h1167.779
				c100.255,0,179.309,25.585,249.691,65.547c53.797,30.849,81.758,69.334,92.792,111.098
				C2206.261,772.048,2207,785.486,2207,799.639z"/>
		</g>
	</g>
</g>
</svg>
