<?xml version="1.0" encoding="utf-8"?>
<!-- Generator: Adobe Illustrator 16.0.3, SVG Export Plug-In . SVG Version: 6.00 Build 0)  -->
<!DOCTYPE svg PUBLIC "-//W3C//DTD SVG 1.1//EN" "http://www.w3.org/Graphics/SVG/1.1/DTD/svg11.dtd">
<svg version="1.1" id="Слой_1" xmlns="http://www.w3.org/2000/svg" xmlns:xlink="http://www.w3.org/1999/xlink" x="0px" y="0px"
	 width="278.667px" height="139px" viewBox="0 0 278.667 139" enable-background="new 0 0 278.667 139" xml:space="preserve">
<g id="XMLID_1_">
	<g>
		<path fill="#F9F6CD" d="M200.233,1.5c42.49,0,76.93,30.16,76.93,68s-34.44,68-76.93,68h-121.8c-42.49,0-76.93-30.16-76.93-68
			c0-18.92,8.61-35.92,22.53-48.19C37.954,9.04,57.193,1.5,78.434,1.5H200.233z"/>
	</g>
	<g>
		<path fill="none" stroke="#000000" stroke-width="3" stroke-miterlimit="10" d="M277.164,69.5c0,37.84-34.44,68-76.93,68h-121.8
			c-42.49,0-76.93-30.16-76.93-68c0-18.92,8.61-35.92,22.53-48.19C37.954,9.04,57.193,1.5,78.434,1.5h121.8
			C242.723,1.5,277.164,31.66,277.164,69.5z"/>
	</g>
</g>
<g>
	<g>
		<path d="M42.823,111.938v-9.211h-3.002v-1.478h3.002v-0.51c0-1.501,0.664-2.868,2.479-3.73c1.458-0.706,3.402-0.994,5.214-0.994
			c1.372,0,2.565,0.155,3.314,0.31l-0.528,1.501c-0.576-0.133-1.371-0.241-2.477-0.241c-3.315,0-4.156,1.454-4.156,3.091v0.574
			h5.172v1.478h-5.172v9.211H42.823z"/>
		<path d="M55.335,104.583c0-1.259-0.042-2.34-0.178-3.334h3.406l0.131,2.098h0.177c0.973-1.436,3.315-2.339,5.924-2.339
			c0.441,0,0.75,0.02,1.105,0.064v1.833c-0.4-0.045-0.796-0.065-1.327-0.065c-2.741,0-4.684,1.036-5.217,2.495
			c-0.086,0.265-0.177,0.574-0.177,0.907v5.695h-3.845V104.583z"/>
		<path d="M81.417,111.938l-0.31-1.346h-0.131c-1.193,0.84-3.491,1.592-6.542,1.592c-4.333,0-6.543-1.526-6.543-3.073
			c0-2.581,4.598-3.995,12.862-3.976v-0.22c0-0.884-0.486-2.475-4.863-2.475c-1.986,0-4.063,0.31-5.565,0.797l-0.885-1.281
			c1.77-0.574,4.331-0.948,7.027-0.948c6.542,0,8.132,2.229,8.132,4.373v3.995c0,0.93,0.09,1.832,0.354,2.562H81.417z
			 M80.845,106.484c-4.246-0.045-9.062,0.329-9.062,2.408c0,1.259,1.678,1.855,3.666,1.855c2.784,0,4.554-0.884,5.172-1.791
			c0.132-0.197,0.224-0.42,0.224-0.616V106.484z"/>
		<path d="M90.879,104.141c0-1.104-0.04-2.007-0.177-2.892h3.405l0.177,1.724h0.132c1.194-1.017,3.184-1.965,6.72-1.965
			c2.915,0,5.127,0.881,6.052,2.139h0.093c0.661-0.594,1.502-1.058,2.383-1.391c1.285-0.483,2.696-0.748,4.729-0.748
			c2.83,0,7.03,0.926,7.03,4.638v6.292h-3.801v-6.051c0-2.052-1.502-3.292-4.641-3.292c-2.21,0-3.936,0.82-4.599,1.77
			c-0.178,0.264-0.31,0.615-0.31,0.971v6.603h-3.799v-6.402c0-1.7-1.505-2.94-4.465-2.94c-2.434,0-4.199,0.972-4.817,1.946
			c-0.222,0.288-0.309,0.616-0.309,0.949v6.447h-3.805V104.141z"/>
		<path d="M129.92,106.95c0.087,2.627,3.446,3.708,7.337,3.708c2.783,0,4.464-0.242,5.921-0.553l0.662,1.391
			c-1.368,0.311-3.712,0.666-7.113,0.666c-6.586,0-10.521-2.166-10.521-5.39s3.801-5.764,10.034-5.764
			c6.979,0,8.84,3.068,8.84,5.034c0,0.396-0.09,0.707-0.133,0.907H129.92z M141.322,105.555c0.046-1.236-1.017-3.156-5.391-3.156
			c-3.936,0-5.657,1.811-5.966,3.156H141.322z"/>
		<path d="M151.452,101.25l2.825,5.432c0.618,1.194,1.193,2.298,1.593,3.401h0.133c0.485-1.081,1.194-2.23,1.899-3.379l3.491-5.454
			h3.271l3.313,5.345c0.797,1.281,1.418,2.407,1.903,3.488h0.131c0.354-1.081,0.928-2.207,1.636-3.466l3.051-5.367h3.846
			l-6.896,10.688h-3.536l-3.27-5.103c-0.751-1.189-1.371-2.252-1.902-3.511h-0.087c-0.53,1.281-1.193,2.385-1.947,3.534
			l-3.445,5.079h-3.536l-6.452-10.688H151.452z"/>
		<path d="M201.359,106.507c0,3.953-5.483,5.677-10.655,5.677c-5.789,0-10.251-2.12-10.251-5.503c0-3.575,4.685-5.673,10.606-5.673
			C197.201,101.008,201.359,103.238,201.359,106.507z M184.388,106.617c0,2.34,2.692,4.108,6.494,4.108
			c3.713,0,6.495-1.746,6.495-4.153c0-1.811-1.81-4.108-6.409-4.108C186.373,102.463,184.388,104.583,184.388,106.617z"/>
		<path d="M206.271,104.583c0-1.259-0.044-2.34-0.179-3.334h3.404l0.136,2.098h0.172c0.974-1.436,3.319-2.339,5.924-2.339
			c0.443,0,0.75,0.02,1.105,0.064v1.833c-0.398-0.045-0.795-0.065-1.326-0.065c-2.739,0-4.686,1.036-5.216,2.495
			c-0.089,0.265-0.174,0.574-0.174,0.907v5.695h-3.847V104.583z"/>
		<path d="M224.75,106.152h0.092c0.527-0.374,1.279-0.839,1.898-1.213l6.277-3.689h4.68l-8.264,4.396l9.414,6.292h-4.727
			l-7.381-5.125l-1.99,1.108v4.017h-3.848V96.257h3.848V106.152z"/>
	</g>
	<g>
		<g>
			<g>
				<g>
					<path d="M55.333,71v14h51.46l-4.408,3.775L98.527,92h-43.5c-5.096,0-10.054,0.071-13.661-2.023
						c-3.638-2.093-6.032-3.512-6.032-6.488V72.802c0-2.949,2.395-6.541,6.032-8.607C44.973,62.101,49.931,60,55.027,60h51.767
						l-2.452,2.844l-7.631,8.364"/>
				</g>
			</g>
		</g>
		<path d="M173.333,38v15h47.225c6.295,0,12.145,2.353,16.639,4.939c4.453,2.552,7.137,6.746,7.137,10.388v13.201
			c0,3.675-2.684,5.408-7.137,7.994C232.703,92.107,226.853,92,220.558,92h-65.435l9.256-9h56.954V65h-46.471
			c-6.298,0-11.073-0.583-15.495-3.134c-4.494-2.585-6.034-5.006-6.034-8.648V41.886c0-3.643,1.54-7.097,6.034-9.717
			C163.79,29.616,168.564,28,174.862,28h73.36l-1.836,1.696L237.912,38H173.333z"/>
		<path d="M120.11,29.447c6.327,0,11.866,0.895,16.325,3.446c4.49,2.621,6.898,5.35,6.898,8.992V92h-24V38H30.445l10.209-9.27"/>
	</g>
</g>
</svg>
