<?xml version="1.0" encoding="utf-8"?>
<!-- Generator: Adobe Illustrator 16.0.3, SVG Export Plug-In . SVG Version: 6.00 Build 0)  -->
<!DOCTYPE svg PUBLIC "-//W3C//DTD SVG 1.1//EN" "http://www.w3.org/Graphics/SVG/1.1/DTD/svg11.dtd">
<svg version="1.1" id="Слой_1" xmlns="http://www.w3.org/2000/svg" xmlns:xlink="http://www.w3.org/1999/xlink" x="0px" y="0px"
	 width="9136.25px" height="452.949px" viewBox="0 0 9136.25 452.949" enable-background="new 0 0 9136.25 452.949"
	 xml:space="preserve">
<g>
	<path d="M214.258,346.973L66.406,137.793v205.273H29.297V56.934h15.625l143.946,197.852V56.934h37.109v290.039H214.258z"/>
	<path d="M267.969,237.988c0-32.291,8.691-58.365,26.074-78.223c17.383-19.854,40.265-29.785,68.652-29.785
		c29.947,0,53.189,9.54,69.727,28.613c16.534,19.076,24.805,45.541,24.805,79.395c0,33.725-8.466,60.321-25.391,79.785
		c-16.928,19.467-39.975,29.199-69.141,29.199c-29.819,0-53.061-9.83-69.727-29.492C276.3,297.821,267.969,271.322,267.969,237.988z
		 M307.031,237.988c0,52.475,18.555,78.711,55.664,78.711c17.315,0,30.89-7.031,40.723-21.094
		c9.83-14.063,14.746-33.268,14.746-57.617c0-51.822-18.491-77.734-55.469-77.734c-16.928,0-30.438,6.903-40.527,20.703
		C312.076,194.76,307.031,213.77,307.031,237.988z"/>
	<path d="M625,343.066v-121.68c0-22.266-3.354-37.857-10.059-46.777c-6.708-8.917-17.938-13.379-33.691-13.379
		c-8.466,0-17.318,2.539-26.563,7.617c-9.247,5.078-16.342,11.328-21.289,18.75v155.469h-37.109v-209.18h25.391l11.719,26.953
		c12.237-20.572,32.226-30.859,59.961-30.859c45.831,0,68.75,27.865,68.75,83.594v129.492H625z"/>
	<path d="M821.68,330.566l13.086-35.156c20.703,13.544,37.369,20.313,50,20.313c22.916,0,34.375-9.635,34.375-28.906
		c0-13.8-11.068-25.65-33.203-35.547c-17.06-7.813-28.549-13.736-34.473-17.773c-5.927-4.034-11.068-8.624-15.43-13.77
		c-4.364-5.143-7.617-10.611-9.766-16.406c-2.148-5.792-3.223-12.012-3.223-18.652c0-17.188,6.25-30.597,18.75-40.234
		c12.5-9.635,28.839-14.453,49.023-14.453c15.234,0,34.439,4.818,57.617,14.453l-10.547,34.375
		c-14.716-11.719-29.492-17.578-44.336-17.578c-8.856,0-16.309,2.084-22.363,6.25c-6.055,4.169-9.082,9.442-9.082,15.82
		c0,13.412,7.617,23.568,22.852,30.469l26.563,12.109c16.275,7.422,28.125,15.888,35.547,25.391
		c7.422,9.506,11.133,21.42,11.133,35.742c0,18.75-6.576,33.432-19.727,44.043c-13.153,10.614-31.381,15.918-54.688,15.918
		C861.783,346.973,841.08,341.504,821.68,330.566z"/>
	<path d="M1032.422,133.887v133.398c0,32.294,13.995,48.438,41.992,48.438c12.237,0,23.438-3.516,33.594-10.547
		s16.861-15.167,20.117-24.414V133.887h37.109v209.18h-37.109V314.16c-4.169,8.203-12.533,15.723-25.098,22.559
		c-12.567,6.836-24.838,10.254-36.816,10.254c-22.919,0-40.463-6.573-52.637-19.727c-12.177-13.15-18.262-31.836-18.262-56.055
		V133.887H1032.422z"/>
	<path d="M1344.531,343.066v-121.68c0-22.266-3.354-37.857-10.059-46.777c-6.708-8.917-17.938-13.379-33.691-13.379
		c-8.466,0-17.318,2.539-26.563,7.617c-9.247,5.078-16.342,11.328-21.289,18.75v155.469h-37.109v-209.18h25.391l11.719,26.953
		c12.237-20.572,32.227-30.859,59.961-30.859c45.831,0,68.75,27.865,68.75,83.594v129.492H1344.531z"/>
	<path d="M1447.656,163.184h-24.219v-29.297h24.219v-43.75l37.109-14.258v58.008h57.422v29.297h-57.422V267.09
		c0,17.578,2.96,30.078,8.887,37.5c5.924,7.422,15.46,11.133,28.613,11.133c9.503,0,19.336-2.408,29.492-7.227l5.469,32.617
		c-15.365,3.906-32.227,5.859-50.586,5.859c-16.537,0-30.502-6.152-41.895-18.457c-11.396-12.305-17.09-27.832-17.09-46.582V163.184
		z"/>
	<path d="M1889.648,242.09h-150.781c0,24.481,6.705,43.295,20.117,56.445c11.847,11.459,27.081,17.188,45.703,17.188
		c21.222,0,38.932-6.183,53.125-18.555l15.625,26.758c-5.731,5.731-14.521,10.678-26.367,14.844
		c-14.844,5.469-31.381,8.203-49.609,8.203c-26.303,0-48.633-8.917-66.992-26.758c-20.443-19.659-30.664-46.094-30.664-79.297
		c0-34.503,10.479-62.174,31.445-83.008c18.75-18.619,40.948-27.93,66.602-27.93c29.815,0,53.189,8.398,70.117,25.195
		c16.406,16.146,24.609,37.567,24.609,64.258C1892.578,227.637,1891.602,235.189,1889.648,242.09z M1799.609,161.23
		c-16.537,0-30.404,5.341-41.602,16.016c-10.678,10.156-16.732,22.787-18.164,37.891h115.82c0-14.972-4.688-27.472-14.063-37.5
		C1831.314,166.699,1817.315,161.23,1799.609,161.23z"/>
	<path d="M2060.352,343.066v-121.68c0-22.266-3.354-37.857-10.059-46.777c-6.708-8.917-17.938-13.379-33.691-13.379
		c-8.466,0-17.318,2.539-26.563,7.617c-9.247,5.078-16.342,11.328-21.289,18.75v155.469h-37.109v-209.18h25.391l11.719,26.953
		c12.237-20.572,32.227-30.859,59.961-30.859c45.831,0,68.75,27.865,68.75,83.594v129.492H2060.352z"/>
	<path d="M2163.477,163.184h-24.219v-29.297h24.219v-43.75l37.109-14.258v58.008h57.422v29.297h-57.422V267.09
		c0,17.578,2.96,30.078,8.887,37.5c5.924,7.422,15.46,11.133,28.613,11.133c9.503,0,19.336-2.408,29.492-7.227l5.469,32.617
		c-15.365,3.906-32.227,5.859-50.586,5.859c-16.537,0-30.502-6.152-41.895-18.457c-11.396-12.305-17.09-27.832-17.09-46.582V163.184
		z"/>
	<path d="M2326.758,343.066v-177.93h-28.711v-31.25h65.82v209.18H2326.758z M2347.07,54.785c6.378,0,11.816,2.246,16.309,6.738
		s6.738,9.863,6.738,16.113c0,6.381-2.246,11.816-6.738,16.309s-9.931,6.738-16.309,6.738c-6.25,0-11.621-2.246-16.113-6.738
		s-6.738-9.928-6.738-16.309c0-6.378,2.213-11.783,6.641-16.211C2335.284,57.001,2340.689,54.785,2347.07,54.785z"/>
	<path d="M2541.016,319.043c-14.844,18.622-37.566,27.93-68.164,27.93c-16.406,0-30.633-5.957-42.676-17.871
		c-12.045-11.914-18.066-26.725-18.066-44.434c0-21.222,9.277-39.16,27.832-53.809s42.219-21.973,70.996-21.973
		c7.813,0,16.666,1.693,26.563,5.078c0-33.854-15.105-50.781-45.313-50.781c-23.178,0-41.016,6.25-53.516,18.75l-15.625-31.055
		c7.031-5.729,16.764-10.645,29.199-14.746c12.434-4.102,24.316-6.152,35.645-6.152c30.338,0,52.375,6.903,66.113,20.703
		c13.736,13.803,20.605,35.742,20.605,65.82v75c0,18.359,5.469,30.6,16.406,36.719v18.555c-15.105,0-26.4-2.148-33.887-6.445
		C2549.641,336.035,2544.27,328.939,2541.016,319.043z M2537.5,240.332c-11.719-2.604-19.922-3.906-24.609-3.906
		c-18.75,0-34.051,4.818-45.898,14.453c-11.85,9.638-17.773,21.029-17.773,34.18c0,21.747,12.824,32.617,38.477,32.617
		c18.75,0,35.352-8.917,49.805-26.758V240.332z"/>
	<path d="M2995.703,343.066V210.645c0-32.94-14.258-49.414-42.773-49.414c-8.984,0-17.383,2.768-25.195,8.301
		c-7.813,5.536-13.153,11.816-16.016,18.848v154.688h-37.109V194.434c0-10.284-3.876-18.39-11.621-24.316
		c-7.748-5.924-18.002-8.887-30.762-8.887c-7.422,0-15.332,2.865-23.73,8.594c-8.398,5.731-14.355,12.045-17.871,18.945v154.297
		h-37.109v-209.18h24.219l12.305,24.219c14.322-18.75,32.227-28.125,53.711-28.125c29.947,0,50.909,9.311,62.891,27.93
		c4.166-7.94,11.914-14.581,23.242-19.922c11.328-5.338,22.979-8.008,34.961-8.008c21.612,0,38.346,6.415,50.195,19.238
		c11.847,12.826,17.773,30.829,17.773,54.004v139.844H2995.703z"/>
	<path d="M3120.703,133.887v133.398c0,32.294,13.995,48.438,41.992,48.438c12.237,0,23.438-3.516,33.594-10.547
		s16.861-15.167,20.117-24.414V133.887h37.109v209.18h-37.109V314.16c-4.169,8.203-12.533,15.723-25.098,22.559
		c-12.567,6.836-24.838,10.254-36.816,10.254c-22.919,0-40.463-6.573-52.637-19.727c-12.177-13.15-18.262-31.836-18.262-56.055
		V133.887H3120.703z"/>
	<path d="M3307.031,283.887V48.145h37.109v229.492c0,11.2,3.223,20.02,9.668,26.465s14.874,9.668,25.293,9.668v33.203
		C3331.055,346.973,3307.031,325.946,3307.031,283.887z"/>
	<path d="M3435.352,163.184h-24.219v-29.297h24.219v-43.75l37.109-14.258v58.008h57.422v29.297h-57.422V267.09
		c0,17.578,2.96,30.078,8.887,37.5c5.924,7.422,15.46,11.133,28.613,11.133c9.503,0,19.336-2.408,29.492-7.227l5.469,32.617
		c-15.365,3.906-32.227,5.859-50.586,5.859c-16.537,0-30.502-6.152-41.895-18.457c-11.396-12.305-17.09-27.832-17.09-46.582V163.184
		z"/>
	<path d="M3598.633,343.066v-177.93h-28.711v-31.25h65.82v209.18H3598.633z M3618.945,54.785c6.378,0,11.816,2.246,16.309,6.738
		s6.738,9.863,6.738,16.113c0,6.381-2.246,11.816-6.738,16.309s-9.931,6.738-16.309,6.738c-6.25,0-11.621-2.246-16.113-6.738
		s-6.738-9.928-6.738-16.309c0-6.378,2.213-11.783,6.641-16.211C3607.159,57.001,3612.564,54.785,3618.945,54.785z"/>
	<path d="M3731.836,331.543v93.555h-37.109V133.887h37.109v17.188c14.063-14.063,31.055-21.094,50.977-21.094
		c29.688,0,52.799,9.247,69.336,27.734c16.534,18.49,24.805,45.575,24.805,81.25c0,31.771-8.334,57.715-25,77.832
		c-16.669,20.117-40.756,30.176-72.266,30.176c-8.856,0-18.329-1.563-28.418-4.688
		C3741.178,339.16,3734.698,335.58,3731.836,331.543z M3731.836,179.004v121.875c2.344,3.516,7.291,6.869,14.844,10.059
		c7.55,3.192,14.908,4.785,22.07,4.785c46.094,0,69.141-26.041,69.141-78.125c0-26.432-5.469-45.768-16.406-58.008
		c-10.938-12.237-28.451-18.359-52.539-18.359c-5.209,0-11.591,1.825-19.141,5.469
		C3742.252,170.346,3736.261,174.447,3731.836,179.004z"/>
	<path d="M3920.508,283.887V48.145h37.109v229.492c0,11.2,3.223,20.02,9.668,26.465s14.874,9.668,25.293,9.668v33.203
		C3944.531,346.973,3920.508,325.946,3920.508,283.887z"/>
	<path d="M4053.516,343.066v-177.93h-28.711v-31.25h65.82v209.18H4053.516z M4073.828,54.785c6.378,0,11.816,2.246,16.309,6.738
		s6.738,9.863,6.738,16.113c0,6.381-2.246,11.816-6.738,16.309s-9.931,6.738-16.309,6.738c-6.25,0-11.621-2.246-16.113-6.738
		s-6.738-9.928-6.738-16.309c0-6.378,2.213-11.783,6.641-16.211C4062.042,57.001,4067.447,54.785,4073.828,54.785z"/>
	<path d="M4307.422,150.879l-18.359,26.172c-3.778-3.775-10.449-7.354-20.02-10.742c-9.57-3.385-18.979-5.078-28.223-5.078
		c-20.185,0-36.2,7.064-48.047,21.191c-11.85,14.13-17.773,33.496-17.773,58.105c0,24.481,6.055,43.134,18.164,55.957
		c12.109,12.826,28.906,19.238,50.391,19.238c16.666,0,33.463-6.445,50.391-19.336l14.648,31.25
		c-19.922,12.891-44.599,19.336-74.023,19.336c-28.516,0-52.084-9.57-70.703-28.711c-18.622-19.141-27.93-45.05-27.93-77.734
		c0-33.331,9.668-60.089,29.004-80.273c19.336-20.182,45.801-30.273,79.395-30.273c10.807,0,22.525,2.279,35.156,6.836
		C4292.12,141.376,4301.432,146.063,4307.422,150.879z"/>
	<path d="M4465.82,319.043c-14.844,18.622-37.567,27.93-68.164,27.93c-16.406,0-30.634-5.957-42.676-17.871
		c-12.045-11.914-18.066-26.725-18.066-44.434c0-21.222,9.277-39.16,27.832-53.809s42.218-21.973,70.996-21.973
		c7.813,0,16.666,1.693,26.563,5.078c0-33.854-15.106-50.781-45.313-50.781c-23.178,0-41.016,6.25-53.516,18.75l-15.625-31.055
		c7.031-5.729,16.764-10.645,29.199-14.746c12.433-4.102,24.316-6.152,35.645-6.152c30.338,0,52.374,6.903,66.113,20.703
		c13.736,13.803,20.605,35.742,20.605,65.82v75c0,18.359,5.469,30.6,16.406,36.719v18.555c-15.106,0-26.4-2.148-33.887-6.445
		C4474.444,336.035,4469.073,328.939,4465.82,319.043z M4462.305,240.332c-11.719-2.604-19.922-3.906-24.609-3.906
		c-18.75,0-34.052,4.818-45.898,14.453c-11.85,9.638-17.773,21.029-17.773,34.18c0,21.747,12.823,32.617,38.477,32.617
		c18.75,0,35.352-8.917,49.805-26.758V240.332z"/>
	<path d="M4686.523,343.066v-121.68c0-22.266-3.354-37.857-10.059-46.777c-6.708-8.917-17.938-13.379-33.691-13.379
		c-8.466,0-17.318,2.539-26.563,7.617c-9.247,5.078-16.342,11.328-21.289,18.75v155.469h-37.109v-209.18h25.391l11.719,26.953
		c12.237-20.572,32.227-30.859,59.961-30.859c45.831,0,68.75,27.865,68.75,83.594v129.492H4686.523z"/>
	<path d="M4908.984,342.871v-15.43c-12.891,12.891-31.641,19.336-56.25,19.336c-26.172,0-47.396-9.375-63.672-28.125
		c-16.278-18.75-24.414-43.75-24.414-75c0-31.378,9.375-58.17,28.125-80.371c18.75-22.198,41.08-33.301,66.992-33.301
		c21.612,0,38.019,5.078,49.219,15.234v-97.07h37.109v294.727H4908.984z M4908.984,182.324
		c-9.375-14.063-22.201-21.094-38.477-21.094c-19.922,0-36.035,7.422-48.34,22.266s-18.457,33.725-18.457,56.641
		c0,50.391,22.916,75.586,68.75,75.586c5.859,0,12.891-1.855,21.094-5.566s13.346-7.647,15.43-11.816V182.324z"/>
	<path d="M5117.383,319.043c-14.844,18.622-37.567,27.93-68.164,27.93c-16.406,0-30.634-5.957-42.676-17.871
		c-12.045-11.914-18.066-26.725-18.066-44.434c0-21.222,9.277-39.16,27.832-53.809s42.218-21.973,70.996-21.973
		c7.813,0,16.666,1.693,26.563,5.078c0-33.854-15.106-50.781-45.313-50.781c-23.178,0-41.016,6.25-53.516,18.75l-15.625-31.055
		c7.031-5.729,16.764-10.645,29.199-14.746c12.433-4.102,24.316-6.152,35.645-6.152c30.338,0,52.374,6.903,66.113,20.703
		c13.736,13.803,20.605,35.742,20.605,65.82v75c0,18.359,5.469,30.6,16.406,36.719v18.555c-15.106,0-26.4-2.148-33.887-6.445
		C5126.007,336.035,5120.636,328.939,5117.383,319.043z M5113.867,240.332c-11.719-2.604-19.922-3.906-24.609-3.906
		c-18.75,0-34.052,4.818-45.898,14.453c-11.85,9.638-17.773,21.029-17.773,34.18c0,21.747,12.823,32.617,38.477,32.617
		c18.75,0,35.352-8.917,49.805-26.758V240.332z"/>
	<path d="M5366.992,331.543v93.555h-37.109V133.887h37.109v17.188c14.063-14.063,31.055-21.094,50.977-21.094
		c29.688,0,52.799,9.247,69.336,27.734c16.534,18.49,24.805,45.575,24.805,81.25c0,31.771-8.334,57.715-25,77.832
		c-16.669,20.117-40.756,30.176-72.266,30.176c-8.856,0-18.329-1.563-28.418-4.688
		C5376.334,339.16,5369.854,335.58,5366.992,331.543z M5366.992,179.004v121.875c2.344,3.516,7.291,6.869,14.844,10.059
		c7.55,3.192,14.908,4.785,22.07,4.785c46.094,0,69.141-26.041,69.141-78.125c0-26.432-5.469-45.768-16.406-58.008
		c-10.938-12.237-28.451-18.359-52.539-18.359c-5.209,0-11.591,1.825-19.141,5.469
		C5377.408,170.346,5371.417,174.447,5366.992,179.004z"/>
	<path d="M5666.406,169.629c-8.075-5.597-16.211-8.398-24.414-8.398c-13.153,0-24.643,6.055-34.473,18.164
		c-9.833,12.109-14.746,26.693-14.746,43.75v119.922h-37.109v-209.18h37.109v33.398c13.541-24.869,33.658-37.305,60.352-37.305
		c6.641,0,16.211,1.172,28.711,3.516L5666.406,169.629z"/>
	<path d="M5826.367,319.043c-14.844,18.622-37.567,27.93-68.164,27.93c-16.406,0-30.634-5.957-42.676-17.871
		c-12.045-11.914-18.066-26.725-18.066-44.434c0-21.222,9.277-39.16,27.832-53.809s42.218-21.973,70.996-21.973
		c7.813,0,16.666,1.693,26.563,5.078c0-33.854-15.106-50.781-45.313-50.781c-23.178,0-41.016,6.25-53.516,18.75l-15.625-31.055
		c7.031-5.729,16.764-10.645,29.199-14.746c12.433-4.102,24.316-6.152,35.645-6.152c30.338,0,52.374,6.903,66.113,20.703
		c13.736,13.803,20.605,35.742,20.605,65.82v75c0,18.359,5.469,30.6,16.406,36.719v18.555c-15.106,0-26.4-2.148-33.887-6.445
		C5834.991,336.035,5829.62,328.939,5826.367,319.043z M5822.852,240.332c-11.719-2.604-19.922-3.906-24.609-3.906
		c-18.75,0-34.052,4.818-45.898,14.453c-11.85,9.638-17.773,21.029-17.773,34.18c0,21.747,12.823,32.617,38.477,32.617
		c18.75,0,35.352-8.917,49.805-26.758V240.332z"/>
	<path d="M6094.531,242.09H5943.75c0,24.481,6.705,43.295,20.117,56.445c11.847,11.459,27.081,17.188,45.703,17.188
		c21.222,0,38.932-6.183,53.125-18.555l15.625,26.758c-5.731,5.731-14.521,10.678-26.367,14.844
		c-14.844,5.469-31.381,8.203-49.609,8.203c-26.303,0-48.633-8.917-66.992-26.758c-20.443-19.659-30.664-46.094-30.664-79.297
		c0-34.503,10.479-62.174,31.445-83.008c18.75-18.619,40.948-27.93,66.602-27.93c29.815,0,53.189,8.398,70.117,25.195
		c16.406,16.146,24.609,37.567,24.609,64.258C6097.461,227.637,6096.484,235.189,6094.531,242.09z M6004.492,161.23
		c-16.537,0-30.404,5.341-41.602,16.016c-10.678,10.156-16.732,22.787-18.164,37.891h115.82c0-14.972-4.688-27.472-14.063-37.5
		C6036.197,166.699,6022.198,161.23,6004.492,161.23z"/>
	<path d="M6149.805,163.184h-24.219v-29.297h24.219v-43.75l37.109-14.258v58.008h57.422v29.297h-57.422V267.09
		c0,17.578,2.96,30.078,8.887,37.5c5.924,7.422,15.46,11.133,28.613,11.133c9.503,0,19.336-2.408,29.492-7.227l5.469,32.617
		c-15.365,3.906-32.227,5.859-50.586,5.859c-16.537,0-30.502-6.152-41.895-18.457c-11.396-12.305-17.09-27.832-17.09-46.582V163.184
		z"/>
	<path d="M6471.289,242.09h-150.781c0,24.481,6.705,43.295,20.117,56.445c11.847,11.459,27.081,17.188,45.703,17.188
		c21.222,0,38.932-6.183,53.125-18.555l15.625,26.758c-5.731,5.731-14.521,10.678-26.367,14.844
		c-14.844,5.469-31.381,8.203-49.609,8.203c-26.303,0-48.633-8.917-66.992-26.758c-20.443-19.659-30.664-46.094-30.664-79.297
		c0-34.503,10.479-62.174,31.445-83.008c18.75-18.619,40.948-27.93,66.602-27.93c29.815,0,53.189,8.398,70.117,25.195
		c16.406,16.146,24.609,37.567,24.609,64.258C6474.219,227.637,6473.242,235.189,6471.289,242.09z M6381.25,161.23
		c-16.537,0-30.404,5.341-41.602,16.016c-10.678,10.156-16.732,22.787-18.164,37.891h115.82c0-14.972-4.688-27.472-14.063-37.5
		C6412.955,166.699,6398.956,161.23,6381.25,161.23z"/>
	<path d="M6626.953,169.629c-8.075-5.597-16.211-8.398-24.414-8.398c-13.153,0-24.643,6.055-34.473,18.164
		c-9.833,12.109-14.746,26.693-14.746,43.75v119.922h-37.109v-209.18h37.109v33.398c13.541-24.869,33.658-37.305,60.352-37.305
		c6.641,0,16.211,1.172,28.711,3.516L6626.953,169.629z"/>
	<path d="M6917.969,343.066v-121.68c0-22.266-3.354-37.857-10.059-46.777c-6.708-8.917-17.938-13.379-33.691-13.379
		c-8.466,0-17.318,2.539-26.563,7.617c-9.247,5.078-16.342,11.328-21.289,18.75v155.469h-37.109v-209.18h25.391l11.719,26.953
		c12.237-20.572,32.227-30.859,59.961-30.859c45.831,0,68.75,27.865,68.75,83.594v129.492H6917.969z"/>
	<path d="M7183.984,242.09h-150.781c0,24.481,6.705,43.295,20.117,56.445c11.847,11.459,27.081,17.188,45.703,17.188
		c21.222,0,38.932-6.183,53.125-18.555l15.625,26.758c-5.731,5.731-14.521,10.678-26.367,14.844
		c-14.844,5.469-31.381,8.203-49.609,8.203c-26.303,0-48.633-8.917-66.992-26.758c-20.443-19.659-30.664-46.094-30.664-79.297
		c0-34.503,10.479-62.174,31.445-83.008c18.75-18.619,40.948-27.93,66.602-27.93c29.815,0,53.189,8.398,70.117,25.195
		c16.406,16.146,24.609,37.567,24.609,64.258C7186.914,227.637,7185.938,235.189,7183.984,242.09z M7093.945,161.23
		c-16.537,0-30.404,5.341-41.602,16.016c-10.678,10.156-16.732,22.787-18.164,37.891H7150c0-14.972-4.688-27.472-14.063-37.5
		C7125.65,166.699,7111.651,161.23,7093.945,161.23z"/>
	<path d="M7383.789,150.879l-18.359,26.172c-3.778-3.775-10.449-7.354-20.02-10.742c-9.57-3.385-18.979-5.078-28.223-5.078
		c-20.185,0-36.2,7.064-48.047,21.191c-11.85,14.13-17.773,33.496-17.773,58.105c0,24.481,6.055,43.134,18.164,55.957
		c12.109,12.826,28.906,19.238,50.391,19.238c16.666,0,33.463-6.445,50.391-19.336l14.648,31.25
		c-19.922,12.891-44.599,19.336-74.023,19.336c-28.516,0-52.084-9.57-70.703-28.711c-18.622-19.141-27.93-45.05-27.93-77.734
		c0-33.331,9.668-60.089,29.004-80.273c19.336-20.182,45.801-30.273,79.395-30.273c10.807,0,22.525,2.279,35.156,6.836
		C7368.487,141.376,7377.799,146.063,7383.789,150.879z"/>
	<path d="M7600.195,242.09h-150.781c0,24.481,6.705,43.295,20.117,56.445c11.847,11.459,27.081,17.188,45.703,17.188
		c21.222,0,38.932-6.183,53.125-18.555l15.625,26.758c-5.731,5.731-14.521,10.678-26.367,14.844
		c-14.844,5.469-31.381,8.203-49.609,8.203c-26.303,0-48.633-8.917-66.992-26.758c-20.443-19.659-30.664-46.094-30.664-79.297
		c0-34.503,10.479-62.174,31.445-83.008c18.75-18.619,40.948-27.93,66.602-27.93c29.815,0,53.189,8.398,70.117,25.195
		c16.406,16.146,24.609,37.567,24.609,64.258C7603.125,227.637,7602.148,235.189,7600.195,242.09z M7510.156,161.23
		c-16.537,0-30.404,5.341-41.602,16.016c-10.678,10.156-16.732,22.787-18.164,37.891h115.82c0-14.972-4.688-27.472-14.063-37.5
		C7541.861,166.699,7527.862,161.23,7510.156,161.23z"/>
	<path d="M7628.516,330.566l13.086-35.156c20.703,13.544,37.369,20.313,50,20.313c22.916,0,34.375-9.635,34.375-28.906
		c0-13.8-11.068-25.65-33.203-35.547c-17.06-7.813-28.549-13.736-34.473-17.773c-5.927-4.034-11.068-8.624-15.43-13.77
		c-4.364-5.143-7.617-10.611-9.766-16.406c-2.148-5.792-3.223-12.012-3.223-18.652c0-17.188,6.25-30.597,18.75-40.234
		c12.5-9.635,28.839-14.453,49.023-14.453c15.234,0,34.439,4.818,57.617,14.453l-10.547,34.375
		c-14.716-11.719-29.492-17.578-44.336-17.578c-8.856,0-16.309,2.084-22.363,6.25c-6.055,4.169-9.082,9.442-9.082,15.82
		c0,13.412,7.617,23.568,22.852,30.469l26.563,12.109c16.275,7.422,28.125,15.888,35.547,25.391
		c7.422,9.506,11.133,21.42,11.133,35.742c0,18.75-6.576,33.432-19.727,44.043c-13.153,10.614-31.381,15.918-54.688,15.918
		C7668.619,346.973,7647.916,341.504,7628.516,330.566z"/>
	<path d="M7790.43,330.566l13.086-35.156c20.703,13.544,37.369,20.313,50,20.313c22.916,0,34.375-9.635,34.375-28.906
		c0-13.8-11.068-25.65-33.203-35.547c-17.06-7.813-28.549-13.736-34.473-17.773c-5.927-4.034-11.068-8.624-15.43-13.77
		c-4.364-5.143-7.617-10.611-9.766-16.406c-2.148-5.792-3.223-12.012-3.223-18.652c0-17.188,6.25-30.597,18.75-40.234
		c12.5-9.635,28.839-14.453,49.023-14.453c15.234,0,34.439,4.818,57.617,14.453l-10.547,34.375
		c-14.716-11.719-29.492-17.578-44.336-17.578c-8.856,0-16.309,2.084-22.363,6.25c-6.055,4.169-9.082,9.442-9.082,15.82
		c0,13.412,7.617,23.568,22.852,30.469l26.563,12.109c16.275,7.422,28.125,15.888,35.547,25.391
		c7.422,9.506,11.133,21.42,11.133,35.742c0,18.75-6.576,33.432-19.727,44.043c-13.153,10.614-31.381,15.918-54.688,15.918
		C7830.533,346.973,7809.83,341.504,7790.43,330.566z"/>
	<path d="M7983.984,343.066v-177.93h-28.711v-31.25h65.82v209.18H7983.984z M8004.297,54.785c6.378,0,11.816,2.246,16.309,6.738
		s6.738,9.863,6.738,16.113c0,6.381-2.246,11.816-6.738,16.309s-9.931,6.738-16.309,6.738c-6.25,0-11.621-2.246-16.113-6.738
		s-6.738-9.928-6.738-16.309c0-6.378,2.213-11.783,6.641-16.211C7992.511,57.001,7997.916,54.785,8004.297,54.785z"/>
	<path d="M8093.359,163.184h-24.219v-29.297h24.219v-43.75l37.109-14.258v58.008h57.422v29.297h-57.422V267.09
		c0,17.578,2.96,30.078,8.887,37.5c5.924,7.422,15.46,11.133,28.613,11.133c9.503,0,19.336-2.408,29.492-7.227l5.469,32.617
		c-15.365,3.906-32.227,5.859-50.586,5.859c-16.537,0-30.502-6.152-41.895-18.457c-11.396-12.305-17.09-27.832-17.09-46.582V163.184
		z"/>
	<path d="M8356.836,319.043c-14.844,18.622-37.567,27.93-68.164,27.93c-16.406,0-30.634-5.957-42.676-17.871
		c-12.045-11.914-18.066-26.725-18.066-44.434c0-21.222,9.277-39.16,27.832-53.809s42.218-21.973,70.996-21.973
		c7.813,0,16.666,1.693,26.563,5.078c0-33.854-15.106-50.781-45.313-50.781c-23.178,0-41.016,6.25-53.516,18.75l-15.625-31.055
		c7.031-5.729,16.764-10.645,29.199-14.746c12.433-4.102,24.316-6.152,35.645-6.152c30.338,0,52.374,6.903,66.113,20.703
		c13.736,13.803,20.605,35.742,20.605,65.82v75c0,18.359,5.469,30.6,16.406,36.719v18.555c-15.106,0-26.4-2.148-33.887-6.445
		C8365.46,336.035,8360.089,328.939,8356.836,319.043z M8353.32,240.332c-11.719-2.604-19.922-3.906-24.609-3.906
		c-18.75,0-34.052,4.818-45.898,14.453c-11.85,9.638-17.773,21.029-17.773,34.18c0,21.747,12.823,32.617,38.477,32.617
		c18.75,0,35.352-8.917,49.805-26.758V240.332z"/>
	<path d="M8462.109,163.184h-24.219v-29.297h24.219v-43.75l37.109-14.258v58.008h57.422v29.297h-57.422V267.09
		c0,17.578,2.96,30.078,8.887,37.5c5.924,7.422,15.46,11.133,28.613,11.133c9.503,0,19.336-2.408,29.492-7.227l5.469,32.617
		c-15.365,3.906-32.227,5.859-50.586,5.859c-16.537,0-30.502-6.152-41.895-18.457c-11.396-12.305-17.09-27.832-17.09-46.582V163.184
		z"/>
	<path d="M8783.594,242.09h-150.781c0,24.481,6.705,43.295,20.117,56.445c11.847,11.459,27.081,17.188,45.703,17.188
		c21.222,0,38.932-6.183,53.125-18.555l15.625,26.758c-5.731,5.731-14.521,10.678-26.367,14.844
		c-14.844,5.469-31.381,8.203-49.609,8.203c-26.303,0-48.633-8.917-66.992-26.758c-20.443-19.659-30.664-46.094-30.664-79.297
		c0-34.503,10.479-62.174,31.445-83.008c18.75-18.619,40.948-27.93,66.602-27.93c29.815,0,53.189,8.398,70.117,25.195
		c16.406,16.146,24.609,37.567,24.609,64.258C8786.523,227.637,8785.547,235.189,8783.594,242.09z M8693.555,161.23
		c-16.537,0-30.404,5.341-41.602,16.016c-10.678,10.156-16.732,22.787-18.164,37.891h115.82c0-14.972-4.688-27.472-14.063-37.5
		C8725.26,166.699,8711.261,161.23,8693.555,161.23z"/>
	<path d="M9067.773,343.066V210.645c0-32.94-14.258-49.414-42.773-49.414c-8.984,0-17.383,2.768-25.195,8.301
		c-7.813,5.536-13.153,11.816-16.016,18.848v154.688h-37.109V194.434c0-10.284-3.876-18.39-11.621-24.316
		c-7.748-5.924-18.002-8.887-30.762-8.887c-7.422,0-15.332,2.865-23.73,8.594c-8.398,5.731-14.355,12.045-17.871,18.945v154.297
		h-37.109v-209.18h24.219l12.305,24.219c14.322-18.75,32.227-28.125,53.711-28.125c29.947,0,50.909,9.311,62.891,27.93
		c4.166-7.94,11.914-14.581,23.242-19.922c11.328-5.338,22.979-8.008,34.961-8.008c21.612,0,38.346,6.415,50.195,19.238
		c11.847,12.826,17.773,30.829,17.773,54.004v139.844H9067.773z"/>
</g>
<text transform="matrix(1 0 0 1 0 343.0664)" display="none" font-family="'TrebuchetMS'" font-size="400">Non sunt entia multiplicanda praeter necessitatem</text>
<text transform="matrix(1 0 0 1 5.0005 348.0664)" display="none" fill="#FFFFD5" font-family="'TrebuchetMS'" font-size="400">Non sunt entia multiplicanda praeter necessitatem</text>
</svg>
