<?xml version="1.0" encoding="utf-8"?>
<!-- Generator: Adobe Illustrator 16.0.3, SVG Export Plug-In . SVG Version: 6.00 Build 0)  -->
<!DOCTYPE svg PUBLIC "-//W3C//DTD SVG 1.1//EN" "http://www.w3.org/Graphics/SVG/1.1/DTD/svg11.dtd">
<svg version="1.1" id="Слой_1" xmlns="http://www.w3.org/2000/svg" xmlns:xlink="http://www.w3.org/1999/xlink" x="0px" y="0px"
	 width="471.992px" height="506.313px" viewBox="0 0 471.992 506.313" enable-background="new 0 0 471.992 506.313"
	 xml:space="preserve">
<g>
	<g>
		<g>
			<path d="M403.703,78.156H68.288c-4.025,0-7.292,4.9-7.292,10.938c0,6.037,3.267,10.938,7.292,10.938h335.417
				c4.023,0,7.291-4.9,7.291-10.938C410.996,83.057,407.729,78.156,403.703,78.156z"/>
		</g>
	</g>
	<g>
		<g>
			<path d="M330.787,143.781H141.204c-4.025,0-7.292,4.9-7.292,10.938c0,6.038,3.267,10.938,7.292,10.938h189.583
				c4.023,0,7.291-4.9,7.291-10.938C338.078,148.682,334.813,143.781,330.787,143.781z"/>
		</g>
	</g>
	<g>
		<g>
			<path d="M403.703,209.406H68.288c-4.025,0-7.292,4.9-7.292,10.938c0,6.037,3.267,10.938,7.292,10.938h335.417
				c4.023,0,7.291-4.901,7.291-10.938C410.996,214.306,407.729,209.406,403.703,209.406z"/>
		</g>
	</g>
	<g>
		<g>
			<path d="M330.787,275.031H141.204c-4.025,0-7.292,4.898-7.292,10.938s3.267,10.938,7.292,10.938h189.583
				c4.023,0,7.291-4.899,7.291-10.938S334.813,275.031,330.787,275.031z"/>
		</g>
	</g>
	<g>
		<g>
			<path d="M403.703,340.656H68.288c-4.025,0-7.292,4.898-7.292,10.938s3.267,10.938,7.292,10.938h335.417
				c4.023,0,7.291-4.899,7.291-10.938S407.729,340.656,403.703,340.656z"/>
		</g>
	</g>
	<g>
		<g>
			<path d="M330.787,406.28H141.204c-4.025,0-7.292,4.899-7.292,10.938c0,6.037,3.267,10.938,7.292,10.938h189.583
				c4.023,0,7.291-4.9,7.291-10.938C338.078,411.181,334.813,406.28,330.787,406.28z"/>
		</g>
	</g>
</g>
</svg>
