<?xml version="1.0" encoding="utf-8"?>
<!-- Generator: Adobe Illustrator 16.0.3, SVG Export Plug-In . SVG Version: 6.00 Build 0)  -->
<!DOCTYPE svg PUBLIC "-//W3C//DTD SVG 1.1//EN" "http://www.w3.org/Graphics/SVG/1.1/DTD/svg11.dtd">
<svg version="1.1" id="Слой_1" xmlns="http://www.w3.org/2000/svg" xmlns:xlink="http://www.w3.org/1999/xlink" x="0px" y="0px"
	 width="471.992px" height="506.313px" viewBox="0 0 471.992 506.313" enable-background="new 0 0 471.992 506.313"
	 xml:space="preserve">
<g>
	<g>
		<g>
			<path d="M393.704,78.156H58.288c-4.025,0-7.292,4.9-7.292,10.939c0,6.036,3.267,10.938,7.292,10.938h335.417
				c4.023,0,7.291-4.901,7.291-10.938C400.996,83.056,397.729,78.156,393.704,78.156z"/>
		</g>
	</g>
	<g>
		<g>
			<path d="M291.62,143.781H58.288c-4.025,0-7.292,4.9-7.292,10.938c0,6.037,3.267,10.938,7.292,10.938H291.62
				c4.026,0,7.292-4.901,7.292-10.938C298.912,148.681,295.646,143.781,291.62,143.781z"/>
		</g>
	</g>
	<g>
		<g>
			<path d="M393.704,209.406H58.288c-4.025,0-7.292,4.9-7.292,10.938c0,6.037,3.267,10.938,7.292,10.938h335.417
				c4.023,0,7.291-4.9,7.291-10.938C400.996,214.306,397.729,209.406,393.704,209.406z"/>
		</g>
	</g>
	<g>
		<g>
			<path d="M291.62,275.032H58.288c-4.025,0-7.292,4.897-7.292,10.937c0,6.04,3.267,10.938,7.292,10.938H291.62
				c4.026,0,7.292-4.898,7.292-10.938C298.912,279.93,295.646,275.032,291.62,275.032z"/>
		</g>
	</g>
	<g>
		<g>
			<path d="M393.704,340.657H58.288c-4.025,0-7.292,4.896-7.292,10.937s3.267,10.938,7.292,10.938h335.417
				c4.023,0,7.291-4.899,7.291-10.938C400.995,345.556,397.729,340.657,393.704,340.657z"/>
		</g>
	</g>
	<g>
		<g>
			<path d="M291.62,406.281H58.288c-4.025,0-7.292,4.898-7.292,10.938s3.267,10.938,7.292,10.938H291.62
				c4.026,0,7.292-4.898,7.292-10.938S295.646,406.281,291.62,406.281z"/>
		</g>
	</g>
</g>
</svg>
