<?xml version="1.0" encoding="utf-8"?>
<!-- Generator: Adobe Illustrator 16.0.3, SVG Export Plug-In . SVG Version: 6.00 Build 0)  -->
<!DOCTYPE svg PUBLIC "-//W3C//DTD SVG 1.1//EN" "http://www.w3.org/Graphics/SVG/1.1/DTD/svg11.dtd">
<svg version="1.1" id="Слой_1" xmlns="http://www.w3.org/2000/svg" xmlns:xlink="http://www.w3.org/1999/xlink" x="0px" y="0px"
	 width="471.992px" height="506.313px" viewBox="0 0 471.992 506.313" enable-background="new 0 0 471.992 506.313"
	 xml:space="preserve">
<g>
	<g>
		<g>
			<path d="M50.996,89.095c0,6.037,3.268,10.938,7.291,10.938h335.417c4.024,0,7.292-4.902,7.292-10.938
				c0-6.039-3.268-10.939-7.292-10.939H58.288C54.264,78.156,50.996,83.056,50.996,89.095z"/>
		</g>
	</g>
	<g>
		<g>
			<path d="M153.08,154.719c0,6.037,3.266,10.938,7.292,10.938h233.332c4.024,0,7.292-4.901,7.292-10.938
				c0-6.038-3.268-10.938-7.292-10.938H160.372C156.346,143.781,153.08,148.681,153.08,154.719z"/>
		</g>
	</g>
	<g>
		<g>
			<path d="M50.996,220.344c0,6.038,3.268,10.938,7.291,10.938h335.417c4.024,0,7.292-4.901,7.292-10.938
				c0-6.038-3.268-10.938-7.292-10.938H58.288C54.264,209.406,50.996,214.306,50.996,220.344z"/>
		</g>
	</g>
	<g>
		<g>
			<path d="M153.08,285.969c0,6.039,3.266,10.938,7.292,10.938h233.332c4.024,0,7.292-4.898,7.292-10.938
				c0-6.039-3.268-10.937-7.292-10.937H160.372C156.346,275.032,153.08,279.93,153.08,285.969z"/>
		</g>
	</g>
	<g>
		<g>
			<path d="M50.996,351.594c0,6.039,3.268,10.938,7.291,10.938h335.417c4.024,0,7.292-4.899,7.292-10.938
				s-3.268-10.937-7.292-10.937H58.288C54.264,340.657,50.997,345.556,50.996,351.594z"/>
		</g>
	</g>
	<g>
		<g>
			<path d="M153.08,417.219c0,6.039,3.266,10.938,7.292,10.938h233.332c4.024,0,7.292-4.899,7.292-10.938
				s-3.268-10.938-7.292-10.938H160.372C156.346,406.281,153.08,411.18,153.08,417.219z"/>
		</g>
	</g>
</g>
</svg>
