<?xml version="1.0" encoding="utf-8"?>
<!-- Generator: Adobe Illustrator 16.0.3, SVG Export Plug-In . SVG Version: 6.00 Build 0)  -->
<!DOCTYPE svg PUBLIC "-//W3C//DTD SVG 1.1//EN" "http://www.w3.org/Graphics/SVG/1.1/DTD/svg11.dtd">
<svg version="1.1" id="Слой_1" xmlns="http://www.w3.org/2000/svg" xmlns:xlink="http://www.w3.org/1999/xlink" x="0px" y="0px"
	 width="502.65px" height="502.65px" viewBox="0 0 502.65 502.65" enable-background="new 0 0 502.65 502.65" xml:space="preserve">
<g>
	<path fill="#FFFFFF" d="M92.314,421.095c-2.303,0-4.606-0.879-6.364-2.636l-1.76-1.76c-1.688-1.688-2.636-3.978-2.636-6.364
		s0.948-4.676,2.636-6.364l319.781-319.78c1.758-1.757,4.061-2.636,6.364-2.636s4.606,0.879,6.364,2.636l1.76,1.76
		c1.688,1.688,2.636,3.977,2.636,6.364s-0.948,4.676-2.636,6.364L98.678,418.46C96.921,420.217,94.618,421.095,92.314,421.095z"/>
	<path fill="#FFFFFF" d="M410.336,90.555l1.76,1.76L92.314,412.095l-1.76-1.76L410.336,90.555 M410.336,72.555
		c-4.606,0-9.213,1.757-12.728,5.272L77.827,397.608c-3.375,3.375-5.272,7.953-5.272,12.728s1.896,9.353,5.272,12.728l1.76,1.76
		c3.515,3.515,8.122,5.272,12.728,5.272s9.213-1.758,12.728-5.272l319.781-319.78c3.376-3.376,5.272-7.954,5.272-12.728
		s-1.896-9.352-5.272-12.728l-1.76-1.76C419.549,74.312,414.942,72.555,410.336,72.555L410.336,72.555z"/>
</g>
<g>
	<path fill="#FFFFFF" d="M410.336,422.095c-2.304,0-4.606-0.879-6.364-2.636L84.191,99.678c-1.688-1.688-2.636-3.977-2.636-6.364
		s0.948-4.676,2.636-6.364l1.76-1.76c1.757-1.757,4.061-2.636,6.364-2.636s4.606,0.879,6.364,2.636l319.782,319.78
		c1.688,1.688,2.636,3.978,2.636,6.364s-0.948,4.676-2.636,6.364l-1.76,1.76C414.942,421.217,412.64,422.095,410.336,422.095z"/>
	<path fill="#FFFFFF" d="M92.314,91.555l319.781,319.781l-1.76,1.76L90.555,93.315L92.314,91.555 M92.314,73.555
		c-4.606,0-9.213,1.757-12.728,5.272l-1.76,1.76c-3.375,3.376-5.272,7.954-5.272,12.728s1.896,9.352,5.272,12.728l319.782,319.78
		c3.515,3.515,8.121,5.272,12.728,5.272s9.213-1.758,12.728-5.272l1.76-1.76c3.376-3.375,5.272-7.953,5.272-12.728
		s-1.896-9.353-5.272-12.728L105.042,78.827C101.528,75.312,96.921,73.555,92.314,73.555L92.314,73.555z"/>
</g>
</svg>
