<?xml version="1.0" encoding="utf-8"?>
<!-- Generator: Adobe Illustrator 16.0.3, SVG Export Plug-In . SVG Version: 6.00 Build 0)  -->
<!DOCTYPE svg PUBLIC "-//W3C//DTD SVG 1.1//EN" "http://www.w3.org/Graphics/SVG/1.1/DTD/svg11.dtd">
<svg version="1.1" id="Слой_1" xmlns="http://www.w3.org/2000/svg" xmlns:xlink="http://www.w3.org/1999/xlink" x="0px" y="0px"
	 width="471.992px" height="506.313px" viewBox="0 0 471.992 506.313" enable-background="new 0 0 471.992 506.313"
	 xml:space="preserve">
<g>
	<path d="M404.416,30.717h-266.53c-17.13,0-31.75,10.92-37.27,26.17c-1.52,4.2-2.35,8.73-2.35,13.45v2.58h21.61v-2.58
		c0-5.35,2.33-10.15,6.03-13.45c3.19-2.83,7.39-4.57,11.98-4.57h266.53c9.94,0,18.01,8.08,18.01,18.02v295.339
		c0,5.671-2.63,10.73-6.729,14.03c-3.09,2.49-7.01,3.99-11.28,3.99h-4.76v21.6h4.76c3.91,0,7.7-0.569,11.28-1.64
		c16.359-4.87,28.34-20.06,28.34-37.98V70.337C444.036,48.487,426.255,30.717,404.416,30.717z"/>
	<path d="M334.111,475.6H67.578c-21.842,0-39.619-17.777-39.619-39.621V140.634c0-21.842,17.777-39.619,39.619-39.619h266.531
		c21.844,0,39.621,17.777,39.621,39.619v295.345C373.73,457.823,355.953,475.6,334.111,475.6z M67.578,122.625
		c-9.934,0-18.008,8.076-18.008,18.009v295.345c0,9.934,8.074,18.01,18.008,18.01h266.531c9.934,0,18.01-8.076,18.01-18.01V140.634
		c0-9.933-8.076-18.009-18.01-18.009H67.578z"/>
</g>
</svg>
