<?xml version="1.0" encoding="utf-8"?>
<!-- Generator: Adobe Illustrator 16.0.3, SVG Export Plug-In . SVG Version: 6.00 Build 0)  -->
<!DOCTYPE svg PUBLIC "-//W3C//DTD SVG 1.1//EN" "http://www.w3.org/Graphics/SVG/1.1/DTD/svg11.dtd">
<svg version="1.1" id="Слой_1" xmlns="http://www.w3.org/2000/svg" xmlns:xlink="http://www.w3.org/1999/xlink" x="0px" y="0px"
	 width="471.992px" height="506.313px" viewBox="0 0 471.992 506.313" enable-background="new 0 0 471.992 506.313"
	 xml:space="preserve">
<path display="none" d="M723.912,283.5v131.48c0,22.988-18.701,41.698-41.701,41.698h-280.56c-23,0-41.7-18.71-41.7-41.698v-310.9
	c0-22.99,18.7-41.7,41.7-41.7h167.78v22.75h-167.78c-10.46,0-18.96,8.5-18.96,18.95v310.9c0,10.448,8.5,18.948,18.96,18.948h280.56
	c10.461,0,18.961-8.5,18.961-18.948V283.5H723.912z M717.345,141.854l-29.967-29.97L572.621,226.647l-12.879,42.856l42.836-12.88
	L717.345,141.854z M771.152,111.351l-164.818,164.82c-0.863,1.076-2.047,1.91-3.469,2.339l-60.699,18.247
	c-2.58,0.765-5.254,0-7.031-1.776l-0.385-0.49l-0.496-0.383c-1.775-1.777-2.541-4.459-1.768-7.039l18.244-60.698
	c0.422-1.402,1.238-2.571,2.295-3.437L717.876,58.082c3.678-3.679,9.641-3.679,13.32,0l19.977,19.97l19.98,19.986
	C774.828,101.709,774.828,107.68,771.152,111.351z M744.318,108.889l-11.873-11.878L720.341,84.91
	c-1.654-1.649-4.34-1.649-5.994,0.007l-20.973,20.968l29.967,29.971l20.977-20.977C745.972,113.231,745.972,110.545,744.318,108.889
	z"/>
<g display="none">
	<path display="inline" d="M735.345,33.557H468.82c-17.129,0-31.75,10.92-37.266,26.172c-1.523,4.197-2.354,8.727-2.354,13.447
		V368.52c0,21.841,17.77,39.619,39.619,39.619h266.525c3.916,0,7.707-0.567,11.281-1.643c16.363-4.863,28.34-20.053,28.34-37.978
		V73.176C774.968,51.327,757.185,33.557,735.345,33.557z M753.361,368.52c0,5.668-2.627,10.73-6.732,14.035
		c-3.086,2.488-7.012,3.979-11.281,3.979H468.82c-9.938,0-18.014-8.078-18.014-18.015V73.176c0-5.342,2.336-10.144,6.037-13.447
		c3.188-2.834,7.383-4.567,11.977-4.567h266.525c9.939,0,18.016,8.078,18.016,18.014V368.52z"/>
	<path display="inline" fill="#FFFFFF" d="M730.593,121.322v301.209c-3.574,1.074-7.365,1.643-11.281,1.643H452.785
		c-21.85,0-39.619-17.779-39.619-39.619V89.211c0-4.72,0.83-9.25,2.354-13.447h269.515
		C710.152,75.764,730.593,96.206,730.593,121.322z"/>
	<path display="inline" d="M665.044,478.443H398.512c-21.843,0-39.62-17.777-39.62-39.621V143.477
		c0-21.842,17.777-39.619,39.62-39.619h266.53c21.844,0,39.621,17.777,39.621,39.619v295.345
		C704.664,460.666,686.886,478.443,665.044,478.443z M398.512,125.468c-9.935,0-18.009,8.076-18.009,18.009v295.345
		c0,9.934,8.074,18.01,18.009,18.01h266.53c9.934,0,18.01-8.076,18.01-18.01V143.477c0-9.933-8.076-18.009-18.01-18.009H398.512z"/>
</g>
<g>
	<path d="M364.116,44.253H83.557c-23.001,0-41.701,18.71-41.701,41.7v310.9c0,22.99,18.7,41.7,41.701,41.7h65.58v-22.75h-65.58
		c-10.461,0-18.961-8.5-18.961-18.95v-310.9c0-10.45,8.5-18.95,18.961-18.95h280.559c10.461,0,18.961,8.5,18.961,18.95v95.11h22.74
		v-95.11C405.817,62.963,387.116,44.253,364.116,44.253z"/>
	<g>
		<rect x="207.834" y="333.359" width="222.301" height="35.1"/>
		<rect x="301.436" y="239.759" width="35.1" height="222.301"/>
	</g>
</g>
</svg>
