<?xml version="1.0" encoding="utf-8"?>
<!-- Generator: Adobe Illustrator 16.0.3, SVG Export Plug-In . SVG Version: 6.00 Build 0)  -->
<!DOCTYPE svg PUBLIC "-//W3C//DTD SVG 1.1//EN" "http://www.w3.org/Graphics/SVG/1.1/DTD/svg11.dtd">
<svg version="1.1" id="Слой_1" xmlns="http://www.w3.org/2000/svg" xmlns:xlink="http://www.w3.org/1999/xlink" x="0px" y="0px"
	 width="502.65px" height="502.65px" viewBox="0 0 502.65 502.65" enable-background="new 0 0 502.65 502.65" xml:space="preserve">
<path fill="#666666" d="M430.551,14.149L251.368,186.731L72.101,14.149c-16.499-16.5-43.229-19.801-59.729-3.301
	s-16.5,39.928,0,56.424l209.132,209.051c16.5,16.5,43.229,16.5,59.729,0L490.277,67.274c16.5-16.496,16.5-39.926,0-56.426
	S447.051-2.351,430.551,14.149L430.551,14.149L430.551,14.149L430.551,14.149z M430.551,228.104L251.368,400.686L72.101,228.104
	c-16.499-16.5-43.229-19.801-59.729-3.303c-16.499,16.5-16.5,39.93,0,56.428l209.132,209.049c16.5,16.5,43.229,16.5,59.729,0
	l209.044-209.047c16.5-16.498,16.5-39.928,0-56.428S447.051,211.604,430.551,228.104L430.551,228.104L430.551,228.104
	L430.551,228.104z"/>
</svg>
