<?xml version="1.0" encoding="utf-8"?>
<!-- Generator: Adobe Illustrator 16.0.3, SVG Export Plug-In . SVG Version: 6.00 Build 0)  -->
<!DOCTYPE svg PUBLIC "-//W3C//DTD SVG 1.1//EN" "http://www.w3.org/Graphics/SVG/1.1/DTD/svg11.dtd">
<svg version="1.1" id="Capa_1" xmlns="http://www.w3.org/2000/svg" xmlns:xlink="http://www.w3.org/1999/xlink" x="0px" y="0px"
	 width="1829px" height="1829px" viewBox="0 0 1829 1829" enable-background="new 0 0 1829 1829" xml:space="preserve">
<g>
	<path d="M1584.809,261.548c-22.64,0-40.742,18.104-40.742,40.743v370.614c0,100.808-82.094,182.597-182.594,182.597H467.524
		c-100.805,0-182.592-82.093-182.592-182.597V296.256c0-22.64-18.108-40.746-40.745-40.746c-22.635,0-40.742,18.106-40.742,40.746
		v376.649c0,145.771,118.608,264.08,264.079,264.08h893.95c145.77,0,264.078-118.606,264.078-264.08V302.291
		C1625.553,279.958,1607.443,261.548,1584.809,261.548z"/>
	<path d="M1202.27,1302.469l-26.949,26.95l-232,232c-7.851,8.15-18.41,12.07-28.67,12.07s-20.82-4.221-28.67-12.07l-259.25-258.95
		c-16-15.989-16-41.649,0-57.64c16-16,41.65-16,57.64,0l189.54,189.53v-328.74c0-22.64,18.1-40.75,40.74-40.75
		s40.74,18.11,40.74,40.75v328.74l189.24-189.53c8.47-8.47,19.65-12.46,30.67-11.95c9.79,0.44,19.44,4.42,26.97,11.95
		C1218.27,1260.83,1218.27,1286.48,1202.27,1302.469z"/>
</g>
</svg>
