<?xml version="1.0" encoding="utf-8"?>
<!-- Generator: Adobe Illustrator 16.0.3, SVG Export Plug-In . SVG Version: 6.00 Build 0)  -->
<!DOCTYPE svg PUBLIC "-//W3C//DTD SVG 1.1//EN" "http://www.w3.org/Graphics/SVG/1.1/DTD/svg11.dtd">
<svg version="1.1" id="Capa_1" xmlns="http://www.w3.org/2000/svg" xmlns:xlink="http://www.w3.org/1999/xlink" x="0px" y="0px"
	 width="1829px" height="1829px" viewBox="0 0 1829 1829" enable-background="new 0 0 1829 1829" xml:space="preserve">
<g>
	<path d="M1584.812,898.052c-22.64,0-40.742,18.105-40.742,40.743v370.616c0,100.806-82.094,182.595-182.594,182.595h-893.95
		c-100.803,0-182.591-82.093-182.591-182.595V932.76c0-22.638-18.109-40.746-40.745-40.746c-22.634,0-40.743,18.108-40.743,40.746
		v376.651c0,145.771,118.609,264.08,264.079,264.08h893.95c145.77,0,264.079-118.608,264.079-264.08V938.796
		C1625.555,916.463,1607.447,898.052,1584.812,898.052z"/>
	<path d="M885.828,1249.957c7.848,7.849,18.41,12.072,28.671,12.072s20.825-3.924,28.674-12.072l258.946-258.948
		c16-15.995,16-41.648,0-57.646c-15.994-15.996-41.648-15.996-57.644,0l-189.232,189.535V296.251
		c0-22.634-18.108-40.743-40.744-40.743s-40.744,18.108-40.744,40.743v826.647L684.221,933.363
		c-15.995-15.996-41.647-15.996-57.645,0c-15.996,15.996-15.996,41.649,0,57.646L885.828,1249.957z"/>
</g>
</svg>
