<?xml version="1.0" encoding="utf-8"?>
<!-- Generator: Adobe Illustrator 16.0.3, SVG Export Plug-In . SVG Version: 6.00 Build 0)  -->
<!DOCTYPE svg PUBLIC "-//W3C//DTD SVG 1.1//EN" "http://www.w3.org/Graphics/SVG/1.1/DTD/svg11.dtd">
<svg version="1.1" id="Capa_1" xmlns="http://www.w3.org/2000/svg" xmlns:xlink="http://www.w3.org/1999/xlink" x="0px" y="0px"
	 width="1829px" height="1829px" viewBox="0 0 1829 1829" enable-background="new 0 0 1829 1829" xml:space="preserve">
<g>
	<path d="M1584.812,898.052c-22.64,0-40.741,18.104-40.741,40.743v370.615c0,100.807-82.095,182.596-182.595,182.596H467.526
		c-100.804,0-182.591-82.094-182.591-182.596V932.76c0-22.639-18.109-40.746-40.746-40.746c-22.633,0-40.742,18.107-40.742,40.746
		v376.65c0,145.771,118.608,264.08,264.079,264.08h893.949c145.771,0,264.079-118.607,264.079-264.08V938.797
		C1625.555,916.464,1607.447,898.052,1584.812,898.052z"/>
	<path d="M1146.78,1249.957c7.848,7.85,18.41,12.072,28.672,12.072c10.26,0,20.824-3.924,28.674-12.072l258.945-258.947
		c16-15.995,16-41.648,0-57.646c-15.994-15.996-41.648-15.996-57.644,0l-189.231,189.535V296.251
		c0-22.634-18.109-40.743-40.744-40.743c-22.637,0-40.744,18.108-40.744,40.743v826.647L945.173,933.363
		c-15.994-15.996-41.646-15.996-57.644,0s-15.996,41.649,0,57.646L1146.78,1249.957z"/>
	<path d="M625.18,1249.957c7.849,7.85,18.41,12.072,28.67,12.072c10.263,0,20.826-3.924,28.675-12.072L941.47,991.01
		c16-15.995,16-41.648,0-57.646c-15.994-15.996-41.646-15.996-57.644,0l-189.232,189.535V296.251
		c0-22.634-18.106-40.743-40.744-40.743c-22.635,0-40.743,18.108-40.743,40.743v826.647L423.572,933.363
		c-15.996-15.996-41.648-15.996-57.646,0s-15.996,41.649,0,57.646L625.18,1249.957z"/>
</g>
</svg>
