<?xml version="1.0" encoding="utf-8"?>
<!-- Generator: Adobe Illustrator 16.0.3, SVG Export Plug-In . SVG Version: 6.00 Build 0)  -->
<!DOCTYPE svg PUBLIC "-//W3C//DTD SVG 1.1//EN" "http://www.w3.org/Graphics/SVG/1.1/DTD/svg11.dtd">
<svg version="1.1" id="Слой_1" xmlns="http://www.w3.org/2000/svg" xmlns:xlink="http://www.w3.org/1999/xlink" x="0px" y="0px"
	 width="474.606px" height="474.601px" viewBox="0 0 474.606 474.601" enable-background="new 0 0 474.606 474.601"
	 xml:space="preserve">
<g>
	<g>
		<path fill="#111111" d="M237.307,20c29.344,0,57.8,5.742,84.576,17.067c25.873,10.943,49.114,26.614,69.076,46.576
			c19.964,19.963,35.635,43.205,46.578,69.079c11.326,26.778,17.068,55.236,17.068,84.583c0,29.342-5.742,57.796-17.068,84.573
			c-10.943,25.873-26.614,49.113-46.578,69.076c-19.963,19.963-43.203,35.634-69.077,46.578
			c-26.776,11.326-55.231,17.068-84.575,17.068c-29.345,0-57.802-5.743-84.58-17.068c-25.874-10.944-49.116-26.615-69.08-46.578
			c-19.963-19.963-35.635-43.203-46.579-69.076C25.742,295.102,20,266.648,20,237.306c0-29.348,5.743-57.806,17.069-84.583
			c10.944-25.875,26.615-49.116,46.579-69.079c19.963-19.962,43.205-35.633,69.08-46.576C179.504,25.742,207.961,20,237.307,20
			 M237.307,0C106.246,0,0,106.235,0,237.306c0,131.049,106.246,237.295,237.308,237.295c131.055,0,237.299-106.246,237.299-237.295
			C474.606,106.236,368.362,0,237.307,0L237.307,0z"/>
	</g>
	<g>
		<path fill="#111111" d="M132.212,166.049c0-13.311,4.272-26.797,12.82-40.46c8.545-13.661,21.019-24.976,37.412-33.944
			c16.395-8.965,35.521-13.451,57.38-13.451c20.314,0,38.252,3.751,53.807,11.244c15.553,7.498,27.566,17.692,36.047,30.582
			c8.477,12.895,12.715,26.902,12.715,42.035c0,11.912-2.418,22.354-7.252,31.317c-4.834,8.97-10.58,16.71-17.234,23.225
			c-6.656,6.517-18.602,17.481-35.836,32.896c-4.766,4.344-8.585,8.165-11.454,11.455c-2.873,3.293-5.013,6.306-6.411,9.035
			c-1.402,2.734-2.488,5.466-3.258,8.198c-0.771,2.73-1.928,7.534-3.469,14.398c-2.662,14.571-11,21.856-25.011,21.856
			c-7.288,0-13.42-2.379-18.392-7.144c-4.977-4.767-7.461-11.84-7.461-21.229c0-11.771,1.818-21.967,5.464-30.583
			c3.644-8.616,8.477-16.185,14.503-22.697c6.022-6.518,14.152-14.258,24.383-23.227c8.965-7.846,15.446-13.768,19.44-17.761
			c3.993-3.993,7.356-8.439,10.089-13.348c2.732-4.902,4.1-10.227,4.1-15.974c0-11.208-4.17-20.667-12.506-28.375
			c-8.339-7.703-19.095-11.56-32.264-11.56c-15.416,0-26.767,3.888-34.051,11.665c-7.286,7.775-13.45,19.23-18.496,34.364
			c-4.765,15.837-13.804,23.75-27.113,23.75c-7.851,0-14.47-2.766-19.862-8.302C134.909,178.484,132.212,172.496,132.212,166.049z
			 M234.782,396.408c-8.551,0-16.012-2.771-22.386-8.303c-6.378-5.532-9.563-13.275-9.563-23.227c0-8.827,3.079-16.251,9.248-22.278
			c6.164-6.022,13.729-9.037,22.699-9.037c8.828,0,16.253,3.015,22.279,9.037c6.022,6.025,9.037,13.451,9.037,22.278
			c0,9.812-3.152,17.518-9.459,23.122C250.332,393.603,243.047,396.408,234.782,396.408z"/>
	</g>
</g>
</svg>
