<?xml version="1.0" encoding="utf-8"?>
<!-- Generator: Adobe Illustrator 16.0.3, SVG Export Plug-In . SVG Version: 6.00 Build 0)  -->
<!DOCTYPE svg PUBLIC "-//W3C//DTD SVG 1.1//EN" "http://www.w3.org/Graphics/SVG/1.1/DTD/svg11.dtd">
<svg version="1.1" id="Capa_1" xmlns="http://www.w3.org/2000/svg" xmlns:xlink="http://www.w3.org/1999/xlink" x="0px" y="0px"
	 width="471.992px" height="506.313px" viewBox="0 0 471.992 506.313" enable-background="new 0 0 471.992 506.313"
	 xml:space="preserve">
<g>
	<path d="M43.329,474.366c-7.089,0-13.199-2.516-18.159-7.478l-2.916-2.914c-13.615-13.616-6.936-34.547,6.703-48.185
		c0,0,71.87-71.872,95.825-95.824c6.755-6.747,6.106-16.075,2.645-21.884c-19.993-33.328-28.522-72.62-24.031-110.664
		c4.624-39.177,22.166-74.981,50.729-103.545c33.485-33.486,78.081-51.927,125.574-51.927c47.492,0,92.089,18.441,125.574,51.927
		c33.485,33.485,51.927,78.083,51.927,125.577c0,47.493-18.441,92.092-51.927,125.576c-33.479,33.479-77.446,51.92-123.793,51.92
		c-0.006,0-0.004,0-0.009,0c-31.64-0.002-62.892-8.719-90.378-25.208c-1.009-0.602-4.604-2.523-9.416-2.523
		c-4.803,0-9.193,1.853-12.697,5.356l-95.623,95.621C64.351,469.199,53.406,474.366,43.329,474.366z M279.7,60.505
		c-39.845,0-77.265,15.477-105.368,43.579c-58.1,58.101-58.1,152.637-0.001,210.736c28.104,28.102,65.523,43.577,105.368,43.577
		c39.844,0,77.263-15.476,105.365-43.577c28.104-28.104,43.581-65.524,43.581-105.368c0-39.845-15.478-77.265-43.581-105.368
		C356.963,75.982,319.544,60.505,279.7,60.505z"/>
	<g>
		<path d="M193.553,192.314c-1.786,0-3.542-0.358-5.218-1.066c-3.289-1.391-5.844-3.986-7.188-7.302
			c-1.343-3.316-1.315-6.956,0.079-10.251c18.204-43.024,60.218-70.822,107.032-70.822c15.513,0,30.672,3.087,45.06,9.174
			c6.802,2.879,9.994,10.755,7.115,17.556c-2.104,4.969-6.95,8.181-12.345,8.181c-1.791,0-3.544-0.358-5.213-1.065
			c-11.064-4.682-22.728-7.054-34.667-7.054c-36.001,0-68.31,21.38-82.311,54.467C203.794,189.103,198.949,192.314,193.553,192.314z
			"/>
	</g>
</g>
</svg>
