<?xml version="1.0" encoding="utf-8"?>
<!-- Generator: Adobe Illustrator 16.0.3, SVG Export Plug-In . SVG Version: 6.00 Build 0)  -->
<!DOCTYPE svg PUBLIC "-//W3C//DTD SVG 1.1//EN" "http://www.w3.org/Graphics/SVG/1.1/DTD/svg11.dtd">
<svg version="1.1" id="Слой_1" xmlns="http://www.w3.org/2000/svg" xmlns:xlink="http://www.w3.org/1999/xlink" x="0px" y="0px"
	 width="502.65px" height="502.65px" viewBox="0 0 502.65 502.65" enable-background="new 0 0 502.65 502.65" xml:space="preserve">
<path fill="#666666" d="M488.503,430.552L315.921,251.37L488.503,72.102c16.5-16.499,19.801-43.229,3.301-59.728
	s-39.928-16.5-56.424,0L226.329,221.506c-16.5,16.5-16.5,43.229,0,59.729l209.049,209.044c16.496,16.5,39.926,16.5,56.426,0
	S505.003,447.052,488.503,430.552L488.503,430.552L488.503,430.552L488.503,430.552z M274.548,430.552L101.966,251.37
	L274.548,72.102c16.5-16.499,19.801-43.229,3.302-59.728c-16.5-16.499-39.929-16.5-56.427,0L12.374,221.506
	c-16.5,16.5-16.5,43.229,0,59.729l209.047,209.044c16.498,16.5,39.928,16.5,56.428,0S291.048,447.052,274.548,430.552
	L274.548,430.552L274.548,430.552L274.548,430.552z"/>
</svg>
