<?xml version="1.0" encoding="utf-8"?>
<!-- Generator: Adobe Illustrator 16.0.3, SVG Export Plug-In . SVG Version: 6.00 Build 0)  -->
<!DOCTYPE svg PUBLIC "-//W3C//DTD SVG 1.1//EN" "http://www.w3.org/Graphics/SVG/1.1/DTD/svg11.dtd">
<svg version="1.1" id="Capa_1" xmlns="http://www.w3.org/2000/svg" xmlns:xlink="http://www.w3.org/1999/xlink" x="0px" y="0px"
	 width="471.992px" height="506.313px" viewBox="0 0 471.992 506.313" enable-background="new 0 0 471.992 506.313"
	 xml:space="preserve">
<path d="M51.984,460.855c-5.269,0-9.555-4.583-9.555-10.22c0-5.635,4.287-10.22,9.555-10.22h7.173V245.15H43.62
	c-3.919,0-7.501-2.627-8.914-6.537c-1.426-3.952-0.463-8.353,2.454-11.215L212.618,55.256c6.441-6.319,14.744-9.8,23.377-9.8
	c8.632,0,16.937,3.48,23.378,9.8l50.707,49.748v-4.888c0-10.591,8.04-19.208,17.921-19.208h33.457
	c9.88,0,17.917,8.617,17.917,19.208v72.878l55.455,54.404c2.918,2.862,3.883,7.265,2.456,11.215
	c-1.413,3.911-4.995,6.538-8.916,6.538h-15.535v195.266h7.172c5.269,0,9.555,4.583,9.555,10.218c0,5.637-4.286,10.222-9.555,10.222
	L51.984,460.855z M393.726,440.417V234.932c0-5.636,4.285-10.222,9.555-10.222h0.538l-40.454-39.689
	c-1.968-1.932-3.096-4.678-3.096-7.534V101.35h-31.072v26.902c0,4.041-2.232,7.709-5.686,9.345
	c-1.227,0.581-2.529,0.876-3.872,0.876c-2.398,0-4.692-0.955-6.458-2.688l-66.723-65.461c-2.888-2.834-6.602-4.396-10.458-4.396
	c-3.857,0-7.571,1.562-10.459,4.396L68.173,224.71h0.539c5.269,0,9.556,4.586,9.556,10.222v205.485h97.988v-151.56
	c0-10.592,8.04-19.209,17.92-19.209h83.642c9.882,0,17.922,8.617,17.922,19.209v151.56H393.726z M276.626,440.417V290.091h-81.257
	v150.326H276.626z"/>
</svg>
