<?xml version="1.0" encoding="utf-8"?>
<!-- Generator: Adobe Illustrator 16.0.3, SVG Export Plug-In . SVG Version: 6.00 Build 0)  -->
<!DOCTYPE svg PUBLIC "-//W3C//DTD SVG 1.1//EN" "http://www.w3.org/Graphics/SVG/1.1/DTD/svg11.dtd">
<svg version="1.1" id="Capa_1" xmlns="http://www.w3.org/2000/svg" xmlns:xlink="http://www.w3.org/1999/xlink" x="0px" y="0px"
	 width="1417.322px" height="1417.324px" viewBox="0 0 1417.322 1417.324" enable-background="new 0 0 1417.322 1417.324"
	 xml:space="preserve">
<g>
	<g>
		<rect x="118.409" y="836.221" stroke="#FFFFFF" stroke-width="0.9263" stroke-miterlimit="10" width="481.134" height="86"/>
		<rect x="118.409" y="495.103" stroke="#FFFFFF" stroke-width="0.9263" stroke-miterlimit="10" width="481.134" height="86"/>
		<rect x="118.409" y="153.985" stroke="#FFFFFF" stroke-width="0.9263" stroke-miterlimit="10" width="481.134" height="86"/>
		<rect x="118.409" y="1177.341" stroke="#FFFFFF" stroke-width="0.9263" stroke-miterlimit="10" width="481.134" height="86"/>
	</g>
</g>
<g>
	<path d="M1154.039,339.03l-77.979,77.964l-45.295,45.285l48.143,42.245c40.266,35.333,74.305,78.873,98.438,125.916
		c30.679,59.795,46.233,124.422,46.233,192.086c0,57.168-11.188,112.608-33.25,164.778c-16.175,38.24-37.648,73.526-64.052,105.313
		c21.03-45.602,32.772-96.349,32.772-149.771c0-147.121-88.162-277.681-224.604-332.619l-36.793-14.814l-28.045,28.047
		L767.957,725.119V339.03H1154.039 M1298.913,279.03H707.957v590.95l204.079-204.096c112.629,45.35,187.014,154.311,187.014,276.961
		c0,164.762-134.059,298.813-298.834,298.813v64.201c65.25,0,128.558-12.781,188.168-37.994
		c57.567-24.341,109.254-59.187,153.635-103.565c44.377-44.377,79.225-96.063,103.57-153.621
		c25.209-59.609,37.99-122.914,37.99-188.152c0-77.28-17.78-151.122-52.85-219.476c-27.785-54.161-66.222-103.238-112.248-143.626
		L1298.913,279.03L1298.913,279.03z"/>
</g>
</svg>
