<?xml version="1.0" encoding="utf-8"?>
<!-- Generator: Adobe Illustrator 16.0.3, SVG Export Plug-In . SVG Version: 6.00 Build 0)  -->
<!DOCTYPE svg PUBLIC "-//W3C//DTD SVG 1.1//EN" "http://www.w3.org/Graphics/SVG/1.1/DTD/svg11.dtd">
<svg version="1.1" id="Capa_1" xmlns="http://www.w3.org/2000/svg" xmlns:xlink="http://www.w3.org/1999/xlink" x="0px" y="0px"
	 width="471.992px" height="506.313px" viewBox="0 0 471.992 506.313" enable-background="new 0 0 471.992 506.313"
	 xml:space="preserve">
<path fill="#333333" d="M273.23,220.365c76.303,18.631,132.617,41.736,132.617,102.091c0,55.891-62.676,96.882-150.779,102.846
	v55.889h-31.789v-55.151c-68.127-0.737-114.445-18.626-132.615-26.085c-4.54-12.663-15.442-46.197-24.52-90.909l26.337-4.478
	c18.163,35.029,56.314,90.171,130.798,95.387V273.279l-25.432-6.712c-66.312-16.393-115.356-40.243-115.356-90.912
	c0-52.166,51.774-94.644,140.788-101.35V25.122h31.789v47.692c29.971,0,62.67,4.472,108.089,15.65
	c5.45,20.117,12.713,42.477,19.076,81.969l-26.344,5.962c-16.348-34.275-39.969-71.538-100.821-77.501v116.999L273.23,220.365z
	 M223.279,98.895c-49.958,2.238-75.389,25.338-75.389,53.656c0,29.809,29.065,46.95,75.389,56.637V98.895z M255.068,400.701
	c48.141-2.98,79.022-21.606,79.022-55.889c0-28.318-14.536-46.944-79.022-64.833V400.701z"/>
</svg>
