<?xml version="1.0" encoding="utf-8"?>
<!-- Generator: Adobe Illustrator 16.0.3, SVG Export Plug-In . SVG Version: 6.00 Build 0)  -->
<!DOCTYPE svg PUBLIC "-//W3C//DTD SVG 1.1//EN" "http://www.w3.org/Graphics/SVG/1.1/DTD/svg11.dtd">
<svg version="1.1" id="Capa_1" xmlns="http://www.w3.org/2000/svg" xmlns:xlink="http://www.w3.org/1999/xlink" x="0px" y="0px"
	 width="471.992px" height="506.313px" viewBox="0 0 471.992 506.313" enable-background="new 0 0 471.992 506.313"
	 xml:space="preserve">
<g>
	<path fill="#333333" d="M427.326,61.826v167.83H259.494l75.518-75.517c-55.381-55.391-146.003-55.391-201.394,0
		c-11.26,11.261-20.214,23.961-26.882,37.528c-0.341,0.647-0.66,1.308-0.956,1.977l-43.01-20.049c0.297-0.67,0.615-1.33,0.945-1.988
		c8.942-18.479,21.06-35.759,36.341-51.04c1.121-1.121,2.252-2.229,3.395-3.307c74.111-70.519,192.406-69.42,265.133,3.307
		l3.352-3.351L427.326,61.826z"/>
	<path fill="#333333" d="M409.221,332.716c-0.297,0.669-0.614,1.329-0.942,1.989c-8.943,18.478-21.062,35.759-36.343,51.04
		c-1.12,1.121-2.252,2.229-3.395,3.307c-74.109,70.518-192.408,69.419-265.133-3.307l-3.351,3.351l-55.391,55.391V276.655h167.831
		l-75.517,75.519c55.379,55.391,146.013,55.391,201.392,0c11.262-11.261,20.213-23.961,26.883-37.528
		c0.342-0.646,0.66-1.307,0.957-1.977L409.221,332.716z"/>
</g>
</svg>
