<?xml version="1.0" encoding="utf-8"?>
<!-- Generator: Adobe Illustrator 16.0.3, SVG Export Plug-In . SVG Version: 6.00 Build 0)  -->
<!DOCTYPE svg PUBLIC "-//W3C//DTD SVG 1.1//EN" "http://www.w3.org/Graphics/SVG/1.1/DTD/svg11.dtd">
<svg version="1.1" id="Слой_1" xmlns="http://www.w3.org/2000/svg" xmlns:xlink="http://www.w3.org/1999/xlink" x="0px" y="0px"
	 width="502.65px" height="502.65px" viewBox="0 0 502.65 502.65" enable-background="new 0 0 502.65 502.65" xml:space="preserve">
<path fill="#666666" d="M14.148,72.101l172.581,179.182L14.148,430.55c-16.5,16.499-19.801,43.229-3.302,59.728
	c16.5,16.499,39.929,16.5,56.425,0l209.05-209.131c16.5-16.5,16.5-43.229,0-59.728L67.273,12.375c-16.496-16.5-39.926-16.5-56.426,0
	S-2.352,55.601,14.148,72.101L14.148,72.101L14.148,72.101L14.148,72.101z M228.103,72.101l172.582,179.182L228.103,430.55
	c-16.5,16.499-19.801,43.229-3.302,59.728c16.5,16.499,39.929,16.5,56.426,0l209.049-209.131c16.5-16.5,16.5-43.229,0-59.728
	L281.229,12.375c-16.497-16.5-39.927-16.5-56.427,0S211.603,55.601,228.103,72.101L228.103,72.101L228.103,72.101L228.103,72.101z"
	/>
</svg>
