<?xml version="1.0" encoding="utf-8"?>
<!-- Generator: Adobe Illustrator 16.0.3, SVG Export Plug-In . SVG Version: 6.00 Build 0)  -->
<!DOCTYPE svg PUBLIC "-//W3C//DTD SVG 1.1//EN" "http://www.w3.org/Graphics/SVG/1.1/DTD/svg11.dtd">
<svg version="1.1" id="Capa_1" xmlns="http://www.w3.org/2000/svg" xmlns:xlink="http://www.w3.org/1999/xlink" x="0px" y="0px"
	 width="471.992px" height="506.313px" viewBox="0 0 471.992 506.313" enable-background="new 0 0 471.992 506.313"
	 xml:space="preserve">
<path fill="#333333" d="M127.438,75.177c58.696,0,85.205,56.171,85.205,99.717c0,44.179-26.509,100.98-86.468,100.98
	c-61.218,0-87.092-57.43-87.092-100.347c0-44.179,25.874-100.351,87.726-100.351H127.438z M126.176,93.481
	c-32.184,0-38.495,54.91-38.495,81.414c0,27.137,6.312,82.046,39.129,82.046c32.816,0,37.867-55.537,37.867-81.413
	c0-27.137-5.051-82.047-37.867-82.047H126.176z M133.123,439.969l-20.196-15.151L333.821,66.344l20.824,14.513L133.123,439.969z
	 M347.702,227.278c58.696,0,85.206,56.807,85.206,100.982c0,43.541-26.51,99.715-86.469,99.715c-60.586,0-87.096-56.8-87.096-99.715
	c0-44.175,26.51-100.982,87.731-100.982H347.702z M346.439,246.213c-32.187,0-38.499,54.27-38.499,81.42
	c0,26.5,6.313,82.043,39.135,82.043c32.815,0,37.865-56.176,37.865-81.416c0-27.777-5.05-82.047-37.865-82.047H346.439z"/>
</svg>
