<?xml version="1.0" encoding="utf-8"?>
<!-- Generator: Adobe Illustrator 16.0.3, SVG Export Plug-In . SVG Version: 6.00 Build 0)  -->
<!DOCTYPE svg PUBLIC "-//W3C//DTD SVG 1.1//EN" "http://www.w3.org/Graphics/SVG/1.1/DTD/svg11.dtd">
<svg version="1.1" id="Capa_1" xmlns="http://www.w3.org/2000/svg" xmlns:xlink="http://www.w3.org/1999/xlink" x="0px" y="0px"
	 width="471.992px" height="506.313px" viewBox="0 0 471.992 506.313" enable-background="new 0 0 471.992 506.313"
	 xml:space="preserve">
<g>
	<path d="M216.188,474.295c-12.124,0-22.379-8.675-24.386-20.627l-5.547-33.28l-1.762-0.55
		c-10.293-3.213-20.081-7.239-29.091-11.968l-1.632-0.856l-27.816,19.797c-4.18,3.009-9.111,4.595-14.274,4.595
		c-6.566,0-12.763-2.581-17.45-7.268l-27.906-27.907c-8.611-8.526-9.731-21.903-2.675-31.817l19.535-27.17l-0.889-1.651
		c-5.157-9.575-9.398-19.637-12.607-29.905l-0.548-1.754l-33.65-5.74c-11.96-2.007-20.635-12.263-20.635-24.387v-39.425
		c0-12.124,8.675-22.379,20.627-24.386l32.929-5.554l0.537-1.784c3.157-10.491,7.275-20.617,12.24-30.095l0.854-1.631
		l-19.797-27.814c-7.022-9.865-5.897-23.246,2.674-31.818l27.996-27.902c4.614-4.698,10.805-7.272,17.454-7.272
		c5.224,0,10.188,1.585,14.354,4.585l27.275,19.639l1.652-0.89c9.577-5.157,19.639-9.398,29.907-12.607l1.753-0.548l5.741-33.651
		c2.007-11.959,12.262-20.634,24.387-20.634h39.424c12.123,0,22.38,8.675,24.387,20.627l5.555,32.932l1.787,0.535
		c10.521,3.147,20.988,7.453,31.112,12.797l1.635,0.863l27.539-19.615c4.179-3.008,9.11-4.594,14.273-4.594
		c6.564,0,12.762,2.581,17.45,7.268l27.905,27.906c8.61,8.528,9.731,21.905,2.675,31.818l-19.616,27.443l0.866,1.639
		c5.017,9.486,9.198,19.584,12.429,30.014l0.545,1.762l33.283,5.646c12.016,2.016,20.611,12.254,20.445,24.345v39.465
		c0,12.123-8.675,22.38-20.627,24.388l-33.298,5.548l-0.54,1.782c-3.01,9.912-7.191,20.008-12.429,30.008l-0.855,1.632l19.61,27.534
		c7.021,9.864,5.896,23.245-2.674,31.817l-27.906,27.906c-4.688,4.686-10.886,7.267-17.451,7.267
		c-5.225,0-10.188-1.585-14.354-4.583l-27.457-19.626l-1.639,0.866c-9.482,5.015-19.58,9.197-30.013,12.43l-1.762,0.546
		l-5.646,33.281c-2.009,11.957-12.266,20.632-24.389,20.632H216.188z M153.259,386.277c1.692,0,3.424,0.458,4.878,1.289
		c12.446,7.14,25.613,12.534,39.133,16.032c3.658,0.933,6.427,3.959,7.065,7.712l6.554,39.321c0.404,2.631,2.675,4.567,5.393,4.567
		h39.424c2.719,0,4.989-1.937,5.4-4.604l6.643-39.287c0.581-3.771,3.342-6.779,7.039-7.704c14.219-3.675,27.685-9.267,40.045-16.626
		c1.491-0.876,3.211-1.344,4.956-1.344c2.014,0,3.922,0.608,5.521,1.762l32.511,23.141c0.863,0.652,1.974,1.023,3.144,1.023
		c1.507,0,2.819-0.547,3.9-1.626l27.906-27.908c1.855-1.857,2.121-4.876,0.618-7.024l-23.142-32.605
		c-2.215-3.145-2.379-7.175-0.421-10.511c7.35-12.345,12.941-25.81,16.609-40.005c0.934-3.658,3.96-6.428,7.712-7.063l39.322-6.554
		c1.561-0.241,2.877-1.139,3.689-2.396h0.878l0.093-3v-39.424c0-2.718-1.936-4.989-4.603-5.399l-39.287-6.642
		c-3.772-0.581-6.779-3.341-7.704-7.04c-3.677-14.222-9.27-27.687-16.627-40.044c-1.941-3.307-1.781-7.426,0.418-10.477
		l23.186-32.574l0.042-0.066c1.425-2.24,1.141-5.083-0.691-6.915l-27.906-27.906c-1.414-1.417-3.051-1.629-3.9-1.629
		c-0.974,0-1.937,0.292-2.942,0.893l-0.11,0.065l-32.409,23.299c-1.63,1.147-3.56,1.763-5.557,1.763
		c-1.725,0-3.434-0.468-4.941-1.353c-12.751-7.519-26.533-13.173-40.958-16.803c-3.69-0.922-6.491-3.984-7.14-7.801l-6.554-39.043
		c-0.405-2.628-2.676-4.564-5.393-4.564h-39.426c-2.718,0-4.989,1.936-5.4,4.604l-6.735,39.565
		c-0.637,3.679-3.427,6.714-7.107,7.724c-13.848,3.581-27.284,9.237-39.893,16.802c-1.483,0.871-3.206,1.338-4.958,1.338
		c-2.031,0-3.978-0.615-5.63-1.779L113.61,96.433c-0.874-0.655-1.981-1.024-3.146-1.024c-1.509,0-2.821,0.547-3.901,1.627
		l-27.906,27.906c-1.856,1.855-2.123,4.875-0.618,7.025l23.332,32.795c2.223,3.083,2.419,7.165,0.512,10.414
		c-7.239,12.316-12.735,25.814-16.334,40.118c-0.923,3.69-3.984,6.491-7.8,7.139l-39.044,6.554
		c-2.628,0.404-4.564,2.676-4.564,5.394v39.425c0,2.718,1.936,4.988,4.604,5.399l39.565,6.735c3.679,0.637,6.714,3.427,7.724,7.106
		c3.578,13.844,9.235,27.28,16.801,39.893c1.932,3.292,1.765,7.457-0.441,10.589l-23.074,32.358l-0.043,0.067
		c-1.423,2.241-1.139,5.084,0.693,6.914l27.906,27.905c1.047,1.05,2.433,1.628,3.9,1.628c0.98,0,1.945-0.293,2.949-0.896l0.1-0.06
		l32.871-23.384C149.267,386.899,151.227,386.277,153.259,386.277z"/>
	<path d="M236.041,346.844c-51.686,0-93.735-42.049-93.735-93.734c0-51.686,42.049-93.735,93.735-93.735
		c51.687,0,93.736,42.049,93.736,93.735C329.777,304.795,287.728,346.844,236.041,346.844z M236.041,178.658
		c-41.053,0-74.451,33.398-74.451,74.451s33.398,74.451,74.451,74.451s74.452-33.398,74.452-74.451S277.094,178.658,236.041,178.658
		z"/>
</g>
</svg>
