<?xml version="1.0" encoding="utf-8"?>
<!-- Generator: Adobe Illustrator 16.0.3, SVG Export Plug-In . SVG Version: 6.00 Build 0)  -->
<!DOCTYPE svg PUBLIC "-//W3C//DTD SVG 1.1//EN" "http://www.w3.org/Graphics/SVG/1.1/DTD/svg11.dtd">
<svg version="1.1" id="Capa_1" xmlns="http://www.w3.org/2000/svg" xmlns:xlink="http://www.w3.org/1999/xlink" x="0px" y="0px"
	 width="471.992px" height="506.313px" viewBox="0 0 471.992 506.313" enable-background="new 0 0 471.992 506.313"
	 xml:space="preserve">
<path fill="#333333" d="M427.306,259.336c0,7.621-0.479,15.131-1.409,22.5c-5.381,42.93-25.971,81.33-56.41,109.99
	c-10.431,9.83-22.01,18.51-34.53,25.84c-0.02,0.01-0.03,0.02-0.05,0.031c-28.86,16.889-62.71,26.609-98.91,26.609
	c-75.94,0-141.55-42.779-172.45-104.779c-0.13-0.24-0.25-0.49-0.36-0.73c-0.14-0.301-0.28-0.6-0.41-0.9l40.95-19.1
	c23.2,48.15,73.7,81.529,132.27,81.529c72.62,0,132.84-51.32,143.98-118.49c1.22-7.32,1.85-14.84,1.85-22.5
	c0-21.569-5.01-42-13.96-60.279c-23.38-47.711-73.64-80.711-131.87-80.711c-37.83,0-72.3,13.931-98.21,36.78l74.71,74.71H44.666
	V62.006l61.49,61.49c2.96-2.65,6.01-5.21,9.13-7.66c32.92-25.93,74.94-41.47,120.71-41.47c76.27,0,142.12,43.16,172.84,105.59
	C420.687,204.006,427.306,230.926,427.306,259.336z"/>
</svg>
