<?xml version="1.0" encoding="utf-8"?>
<!-- Generator: Adobe Illustrator 16.0.3, SVG Export Plug-In . SVG Version: 6.00 Build 0)  -->
<!DOCTYPE svg PUBLIC "-//W3C//DTD SVG 1.1//EN" "http://www.w3.org/Graphics/SVG/1.1/DTD/svg11.dtd">
<svg version="1.1" id="Слой_1" xmlns="http://www.w3.org/2000/svg" xmlns:xlink="http://www.w3.org/1999/xlink" x="0px" y="0px"
	 width="502.65px" height="502.65px" viewBox="0 0 502.65 502.65" enable-background="new 0 0 502.65 502.65" xml:space="preserve">
<path fill="#666666" d="M72.1,488.505l179.183-172.582L430.55,488.505c16.499,16.5,43.229,19.801,59.729,3.301s16.5-39.928,0-56.424
	L281.146,226.331c-16.5-16.5-43.229-16.5-59.729,0L12.373,435.38c-16.5,16.496-16.5,39.926,0,56.426S55.6,505.005,72.1,488.505
	L72.1,488.505L72.1,488.505L72.1,488.505z M72.1,274.55l179.183-172.582L430.55,274.55c16.499,16.5,43.229,19.801,59.729,3.303
	c16.499-16.5,16.5-39.93,0-56.428L281.146,12.376c-16.5-16.5-43.229-16.5-59.729,0L12.373,221.423
	c-16.5,16.498-16.5,39.928,0,56.428S55.6,291.05,72.1,274.55L72.1,274.55L72.1,274.55L72.1,274.55z"/>
</svg>
